<?xml version="1.0" standalone="no"?>
<!DOCTYPE svg PUBLIC "-//W3C//DTD SVG 20010904//EN"
 "http://www.w3.org/TR/2001/REC-SVG-20010904/DTD/svg10.dtd">
<svg version="1.0" xmlns="http://www.w3.org/2000/svg"
 width="260.000000pt" height="260.000000pt" viewBox="0 0 260.000000 260.000000"
 preserveAspectRatio="xMidYMid meet">
<metadata>
Created by potrace 1.11, written by Peter Selinger 2001-2013
</metadata>
<g transform="translate(0.000000,260.000000) scale(0.100000,-0.100000)"
fill="#000000" stroke="none">
<path d="M1992 2588 c-19 -9 -116 -130 -172 -214 -20 -30 -555 -778 -594 -831
-17 -23 -123 -173 -236 -334 -113 -161 -239 -340 -281 -400 l-76 -107 26 -19
c14 -11 79 -56 143 -101 l118 -81 72 102 c39 56 111 158 159 227 48 69 97 139
109 155 27 38 199 283 245 350 19 28 43 61 52 75 10 14 59 83 109 155 95 137
107 155 269 385 56 80 122 174 147 210 25 36 60 85 77 110 105 148 111 174 62
252 -25 40 -38 49 -82 62 -60 18 -114 19 -147 4z"/>
<path d="M555 553 c-15 -38 -168 -451 -186 -501 -17 -49 -17 -52 -1 -40 145
105 481 373 475 379 -19 16 -266 179 -273 179 -4 0 -11 -8 -15 -17z"/>
</g>
</svg>
