<svg id="Layer_1" data-name="Layer 1" xmlns="http://www.w3.org/2000/svg" viewBox="0 0 2048 1444"><defs><style>.cls-1{fill:#ea1f54;}</style></defs><title>CustomCursor</title><path class="cls-1" d="M1115.49,1031.08c2.84-14.48,5-29.14,8.68-43.42,4.24-16.59,9.33-33,14.84-49.21,4.23-12.43,9.26-24.64,14.68-36.6,8.85-19.54,18-39,27.62-58.12,5.83-11.58,12.79-22.59,19.31-33.81,3.75-6.45,7.36-13,11.51-19.2q20.71-30.86,41.81-61.46a248.18,248.18,0,0,1,45.2-49.79c8.54-7.14,18-11.74,29.92-8,2.59.82,6.27-.32,9-1.6,5-2.4,9.29-2.19,13.37,1.48,3.73,3.35,3.6,7.37,2.46,11.92-3.93,15.66-7.58,31.4-11.35,47.1q-8,33.47-16.09,66.93c-7.25,30.15-17.56,59.33-27.84,88.55-6.54,18.56-10.68,37.69-10.61,57.59,0,12.15-.68,24.29-.79,36.44-.1,10.54,4.62,19.26,11.2,27.13,2.85,3.41,6.27,3.56,8.94.25,8.1-10.08,16-20.35,23.77-30.66a125.52,125.52,0,0,0,8.65-12.81c11.83-20.43,23.79-40.79,35.15-61.49,9.36-17,17.94-34.54,26.89-51.83a20.32,20.32,0,0,1,1.63-2.51c5.16-7.18,3.14-11.21-5.44-13.85-7.19-2.22-14.46-5.14-20.62-9.33-4-2.75-7.08-7.95-8.91-12.69-6.12-15.82-1.65-30.65,5.49-45.06,11.17-22.56,26-42.75,42.53-61.41,18.53-20.89,37.66-41.45,58.24-60.28,18.57-17,38-33.5,60.61-45.28a126,126,0,0,1,19.46-7.64c6.86-2.24,12.23,1.06,17,5.71,4.41,4.26,3.62,9.24,1.54,13.9-3.78,8.48-7.45,17.14-12.36,25-13.32,21.26-30.79,39.22-47.25,58-12.61,14.38-25.39,28.78-36.31,44.42-16.67,23.85-31.82,48.76-47.54,73.27-3.42,5.34-2.44,7.59,3.71,9.33a22.72,22.72,0,0,0,4.89.94c16.79,1,33.6,1.75,50.36,3a123,123,0,0,1,21.59,3.56c9.69,2.53,17.81,2,26.62-4.3,31.87-22.67,64.38-44.44,96.66-66.53,1.92-1.32,4.23-2.17,5.89-3.73s4.07-4,3.77-5.58-3.3-3.46-5.43-4c-5.43-1.44-11.23-1.69-16.54-3.43a83.16,83.16,0,0,1-17.56-7.86c-7.17-4.43-10.57-16.75-6.21-24,4.93-8.21,10.21-16.71,17.17-23.1a313.51,313.51,0,0,1,80.12-53.83,217.25,217.25,0,0,1,32.64-12c10.73-3,21.78-2,32.48,1.49,7.89,2.57,15,12.84,15.22,21.88.61,22.07-11.5,36.81-26.59,49.62-15.32,13-31.83,24.61-47.66,37-1.5,1.19-3,4.21-2.51,5.61s3.45,2.69,5.49,3c14.3,2.32,28.73,4.35,41.33,12.1,11.39,7,14.51,19.47,9.38,31.9a101.65,101.65,0,0,1-24.78,35.29c-20.6,19.39-41.84,38.12-63,56.94-7,6.26-12.55,6.09-18.49.38-4.1-3.94-4.55-8.78-.43-12.73,4.79-4.6,10.11-8.64,15.22-12.9,10.74-9,21.47-17.94,32.27-26.82,8.85-7.28,18.38-13.85,26.52-21.84,6-5.85,10.73-13.16,15-20.44,5.72-9.86,3.19-16-7.65-19.63a160.44,160.44,0,0,0-22.28-5.53c-9-1.61-18-2.47-27.07-3.61-6.49-.83-12.13,1.48-17.38,5q-16.86,11.18-33.63,22.48c-18.86,12.79-37.74,25.55-56.46,38.55-8.19,5.68-16.06,11.84-24,17.94-3,2.36-3.86,5.59-1.29,8.77,8.6,10.61,5.88,21.34-.24,31.52-7.88,13.11-20.07,22.14-32.11,31.09-22,16.35-46,29.35-70.92,40.57a58.5,58.5,0,0,1-19.17,4.88c-9.9.75-15.45-9.5-11.18-18.51,7.47-15.74,20.56-26.53,33-37.7,15.73-14.1,32.22-27.36,48.42-40.94,1.9-1.59,4.29-2.69,6-4.48,1.08-1.17,2-3.43,1.61-4.75s-2.54-2.74-4.05-2.91c-9.08-1-18.2-1.85-27.32-2.53-14.76-1.09-29.55-1.78-44.29-3.1-8-.71-12.52,3.15-15.75,9.65-9.21,18.49-18.3,37-27.67,55.45-10.8,21.22-21.48,42.5-32.89,63.39-8.61,15.75-18.13,31-27.6,46.25-2,3.28-5.34,5.94-8.49,8.31-10.24,7.7-18.51,6.34-28.27-2.28-10.87-9.61-16.25-22.36-17.09-36.66-.6-10.26.26-20.6.12-30.9,0-2.27-1.55-4.52-2.39-6.78-1.88,1.31-4.44,2.21-5.55,4a596.76,596.76,0,0,1-54.78,74.84c-6.39,7.46-12.78,14.91-19.52,22a73.21,73.21,0,0,1-28.47,19c-19.72,7.09-37.65-3.13-41.15-21.74-.74-3.9-.51-8-.73-12Zm16.4,5.14,1.17.23c.06,1,0,2,.18,3,1.38,9.65,9.77,16.32,17.17,13.52,8.33-3.15,16.07-7.33,22.11-14.09,10.08-11.28,20.58-22.23,30-34,11.65-14.5,22.92-29.37,33.43-44.71,10.34-15.08,20.17-30.6,29-46.59,9-16.26,12.75-34.44,16.82-52.54,5.41-24,12.21-47.71,18.93-71.4s14.31-47.14,21.08-70.82a150.36,150.36,0,0,0,4.5-24.52c.28-2.58-1.57-6-3.55-8-1.08-1.06-5.24-.68-6.68.57-10.13,8.82-21.23,17-29.53,27.35-16.72,20.88-32.61,42.54-47.44,64.81-14.38,21.58-27.74,43.92-40.16,66.69-10.65,19.52-19.42,40.09-28.86,60.27-3.8,8.13-7.72,16.29-10.61,24.77-6.53,19.22-13.17,38.46-18.39,58.06C1137,1004.33,1134.9,1020.39,1131.89,1036.22Zm252.33-236.85c1.85,3.68,3.23,7.42,5.43,10.6,3.51,5.07,9,7.09,14.82,8.52,8.58,2.1,13.29.47,17.69-7,8.48-14.32,16.25-29.09,25.35-43,13.64-20.88,27.62-41.59,42.5-61.6,15.27-20.54,32-39.95,47.66-60.25,6.37-8.27,11.58-17.47,16.92-26.47,1.06-1.78.35-4.61.45-7-2.46,0-5.24-.68-7.31.22a76.65,76.65,0,0,0-11.63,6.78c-26.17,17.43-49.25,38.58-71.4,60.7-12.21,12.21-24.06,25-34.46,38.74-13.23,17.47-25.34,35.85-36.86,54.51C1388.88,781.48,1387.31,790.57,1384.22,799.37Zm278.84-65.84c4.66-1.38,10.35-1.81,14.53-4.55,12.77-8.37,25.27-17.24,37.29-26.66s23.6-19.44,34.84-29.78c6.82-6.27,10.3-14.64,10.4-24.12.05-5.71-4-11.7-9.6-12.4-6.2-.78-13-1.8-18.75,0a185.7,185.7,0,0,0-32.61,13.51c-12.3,6.56-23.8,14.61-35.62,22-16.43,10.31-31.37,22.4-44,37.2-6.57,7.71-5.64,12.18,3.33,16.7a13.21,13.21,0,0,0,3.24,1.29C1638.18,729,1650.25,731.18,1663.06,733.53ZM1537.91,861.27l-1-.87a23.84,23.84,0,0,0-1.79-4.54c-3.34-5.11-7.82-5.12-14.06-.09-26.17,21.1-52.57,42-76.39,65.78-1.76,1.76-3.81,3.34-5.16,5.37-.85,1.3-.66,3.3-.94,5,1.7.05,3.76.75,5.05,0,18.47-10.2,37.25-20,55.09-31.17,10.74-6.75,20.42-15.42,29.71-24.15C1532.7,872.65,1534.83,866.45,1537.91,861.27Z"/><path class="cls-1" d="M527.77,784.1c20.42,1.46,37-6.77,53.32-15.67,25.62-14,48.07-32.35,69-52.39a375,375,0,0,0,34.26-37.57c5.33-6.69,8.66-15.36,11.43-23.62,6.67-19.92,13.54-39.71,23.71-58.14,8.51-15.43,16.35-31.37,26.35-45.8,15.52-22.41,32.2-44,49.18-65.38,11.89-14.95,24.61-29.32,37.85-43.1,14.05-14.63,29.14-28.26,43.81-42.3a5.93,5.93,0,0,1,2.5-1.59c6.56-1.54,13.09-3.46,19.74-4.31,10.76-1.37,18.67,5.37,20.24,16.13a131.23,131.23,0,0,1-2.07,50.57c-3.76,15.4-11.19,29.16-20.55,41.9-18.37,25-41.34,45.15-66.84,62.39C820,571.8,809.32,577.16,798.59,582c-10.53,4.78-22,4.93-33.41,3.47-6.64-.86-9.75.46-12,6.84-8.79,24.48-22.63,46.32-35.44,68.7-6.6,11.51-11.4,23.4-7.19,37.05,2.55,8.28,11.21,14.82,19.78,16.17,15.86,2.48,29.38-3.42,42.72-10.62,25.49-13.77,48-31.72,69.88-50.44,16.18-13.85,31.66-28.6,44.12-46.11,14.46-20.32,29.25-40.43,43.06-61.19,7.89-11.88,14.32-24.77,21-37.4,5.69-10.71,11-21.64,16.18-32.61,3.19-6.76,5.8-13.79,8.69-20.68a16.84,16.84,0,0,1,2.12-4.46c2.68-3.17,7.34-2.24,8,1.83,1.1,7.27.62,14.28-3,21.22-5.17,9.86-8.93,20.45-14,30.36-9.93,19.39-19.54,39-30.8,57.62a608.68,608.68,0,0,1-36.35,53.09C887.37,634,871,651.58,852.21,666.67c-16.33,13.12-32.88,26-49.93,38.18a168.43,168.43,0,0,1-47.21,23.58c-8.53,2.68-17.48,2.94-26.91,1.27-11-2-19.84-6.42-27-14.37-3-3.26-4.88-7.49-7.1-11.38-2.74-4.81-4.86-5-8.75-1.17C670,717.65,655.14,733,639.08,747c-20.4,17.75-42.69,33-67.89,43.39-17.28,7.12-35.22,11.61-54,9.37-9.08-1.09-17.84-4.23-24.7-10.93-6.25-6.11-9.87-13.08-8.82-22.3.69-6.07-.21-12.31.2-18.43,1-15.15,4.21-29.83,8.47-44.47,5-17.33,10.39-34.49,18.65-50.49,9.22-17.87,19.22-35.36,29.37-52.74a335.1,335.1,0,0,1,19.61-30.09c18.38-24.93,36.4-50.22,58.95-71.67a288.81,288.81,0,0,1,28.73-23.87c4.53-3.3,10.52-5.27,16.13-6.28,12.72-2.31,22.15,5.13,21.87,18.05a134.15,134.15,0,0,1-4.38,32.5c-7.12,25.9-19.68,49.41-34.71,71.58-10.08,14.87-19.77,30.07-30.81,44.21-14.63,18.73-30.12,36.83-45.77,54.74-17,19.48-36.83,36.06-57,52.2-3,2.38-6.84,3.76-9.49,6.4a16.2,16.2,0,0,0-4.31,8.31c-.6,3.69,0,7.65.5,11.43a18.68,18.68,0,0,0,18.08,16.2C521.43,784.2,525.1,784.1,527.77,784.1ZM672.08,493.5c-1.55-3.08-2.44-6.87-4.82-9.06-3.24-3-7.09-.64-10,1.64-9.48,7.52-19.16,14.86-28,23.08-7,6.54-13.17,14.11-19.38,21.49-8.46,10.06-17.27,19.92-24.75,30.68-14,20.23-27.48,40.88-40.66,61.69A211.35,211.35,0,0,0,529,652c-6.74,15.55-12.66,31.46-18.49,47.39a218.18,218.18,0,0,0-7.05,24.4c-.46,1.93,1.26,4.38,2,6.59a39.83,39.83,0,0,0,6.45-2.42c1.37-.78,2.21-2.46,3.38-3.63,14.43-14.49,29.49-28.41,43.16-43.58,16.57-18.4,32.91-37.17,47.66-57,21.21-28.56,41.75-57.73,55.14-91.12A170.88,170.88,0,0,0,672.08,493.5Zm233-63.93,1.22-.49c-1.6-4.91-2.84-10-4.95-14.65a5.8,5.8,0,0,0-8.07-3c-6.23,3.33-12.85,6.52-18,11.23-12.11,11.13-23.73,22.84-35,34.85s-22,24.48-32.6,37.08c-7.69,9.16-14.85,18.78-22.07,28.33s-14,19-20.94,28.53c-2.85,4-3.36,8.08-.81,12.62s6.25,6.82,11.46,6.08c4.75-.67,9.62-1.09,14.14-2.53,15.14-4.82,28.05-14,40.41-23.41,17.7-13.49,34.38-28.22,48.48-45.78C894.71,478.12,904.34,455.66,905.08,429.57Z"/><path class="cls-1" d="M1005,1077.93c0-10.66-.67-21.37.2-32,.83-10.22,2.94-20.37,5-30.44,2.78-13.31,6.15-26.51,9.12-39.79.33-1.44-.28-3.09-.46-4.65-1.6.51-3.47.66-4.72,1.63s-2.2,2.88-3.23,4.39c-11.8,17.31-23.27,34.87-35.49,51.88-11.43,15.93-23.23,31.65-35.64,46.83-16.22,19.84-33,39.27-50,58.47a434.42,434.42,0,0,1-31.62,32.6c-9.28,8.5-19.9,15.53-29.85,23.3-2.74,2.14-4.87,5.3-7.88,6.8-11.56,5.79-23.5,6.1-34.76-.47a14.47,14.47,0,0,1-6.1-9.6c-1.23-10.89-2.55-22-1.48-32.87,1.34-13.67,5-27.13,7.7-40.66a104.44,104.44,0,0,1,3-12.1c8.5-25.56,16.86-51.18,25.82-76.59,4.47-12.69,9.62-25.19,15.28-37.4,11.19-24.14,22.22-48.41,34.66-71.91,14.56-27.52,30.88-54.12,53-76.41a71,71,0,0,1,17.39-12.35c13.79-7.21,28.25-.76,32.14,14.17a53.92,53.92,0,0,1,1.37,15.79,137.77,137.77,0,0,1-6.92,38.18,55.46,55.46,0,0,1-3.33,8.84c-.72,1.32-3.36,3-4.13,2.57-1.42-.75-3-3-2.93-4.45.38-5.29,1.76-10.51,2.2-15.8,1-11.74,2.48-23.53,2.16-35.26-.31-11.07-8.49-14.62-17.7-8.5-10.85,7.21-19,17.11-26.42,27.65-6.39,9.13-12.63,18.39-18.47,27.89a574.7,574.7,0,0,0-39.39,75.11c-8.17,19.14-16.21,38.34-23.86,57.69-5.93,15-11.77,30.11-16.54,45.51-5.21,16.79-9.32,33.94-13.55,51-2.76,11.12-5.23,22.34-7.17,33.62a59.25,59.25,0,0,0-.13,15.91,9.29,9.29,0,0,0,12.33,7.56,116.11,116.11,0,0,0,14.85-6.53c17.78-9.53,31.45-24.14,44.77-38.68,20.78-22.68,40.72-46.15,60.32-69.85,15-18.21,29.69-36.83,43.32-56.11,16.7-23.63,32.08-48.19,48.19-72.25,16.53-24.68,27.87-51.81,38.21-79.47,7.69-20.58,15.64-41.07,23.65-61.53,8.49-21.7,17-43.38,25.85-65,7.49-18.34,15.61-36.42,23.06-54.77s14.53-36.87,21.61-55.38c10.34-27,19-54.76,32.8-80.39,3.44-6.42,7-12.89,11.6-18.51s9.61-4.86,14.55.22c2.41,2.48,2.77,5.11,1.39,8.21-8.56,19.33-17.43,38.53-25.53,58.06-6.75,16.28-12.65,32.91-18.79,49.44-6.43,17.32-12.7,34.71-19,52.07-9.68,26.59-18.68,53.45-29.2,79.71-11,27.49-23.89,54.24-35.22,81.62q-14.29,34.56-26.81,69.85c-6,16.75-11,33.89-15.44,51.1-3.8,14.62-5.56,29.77-9.43,44.37-6.56,24.77-5.67,50.17-7,75.3a58.27,58.27,0,0,0,9.41,35.68c1.91,2.85,3.71,6.13.82,9.09s-6.63,1.49-9.58-.53c-11-7.61-16.35-18.81-18-31.59-1.28-10-1.25-20.24-1.81-30.37Z"/><path class="cls-1" d="M443.77,223.31c.31,4.81.69,9.61.91,14.42a19.49,19.49,0,0,1-.36,5.45c-.76,3.08-1.66,6.69-5.7,6.48s-6.09-3.51-6.53-7.15c-.78-6.54-.61-13.21-1.6-19.71-1.49-9.79-5.14-18.8-14.2-24-6.3-3.62-12.45-.88-17.64,3A99.21,99.21,0,0,0,374,229.1c-9.22,14.82-19.16,29.25-27.48,44.55-11.43,21-22.46,42.35-32.14,64.22-10.54,23.84-19.3,48.47-28.94,72.71-2.83,7.1-6.3,13.94-9,21.09-4.28,11.33-8.06,22.86-12.23,34.23-2.4,6.55-5.17,13-7.76,19.44a9.18,9.18,0,0,0-1.09,3.29c0,1.86,0,4.55,1,5.32s3.82.15,5.36-.71c7.77-4.38,15.14-9.54,23.12-13.5,21.6-10.74,43.29-21.31,65.23-31.33,8.42-3.84,17.56-6.17,26.46-8.89s18.1-5.23,27.19-7.7c5.73-1.56,9.64,1.94,13,5.65,2.4,2.64.93,5.58-1.67,7.24a54.08,54.08,0,0,1-11.06,5.69c-17.09,5.92-34.65,10.67-51.35,17.53S320,483.6,303.77,491.64c-7.15,3.53-14.34,7-21.27,10.95-11.85,6.71-23.66,13.52-35.18,20.78a19,19,0,0,0-7.24,8.59c-6.05,15.95-11.47,32.15-17.22,48.22-1.39,3.9-3.24,7.65-4.77,11.51q-3.48,8.77-6.8,17.62c-3.47,9.27-6.93,18.54-10.26,27.86-2.84,8-5.45,16-8.22,24-3.14,9.06-6.36,18.09-9.53,27.15-3.23,9.23-6.34,18.5-9.69,27.69-3.24,8.88-6.8,17.65-10.05,26.53-1.48,4-2.51,8.23-3.85,12.31-3.85,11.67-7.81,23.31-11.62,35-5,15.26-10,30.49-14.73,45.84-3.1,10.11-5.56,20.43-8.5,30.6-1,3.33-2.75,6.43-3.74,9.76-1.35,4.53-2.32,9.18-3.42,13.78-.12.48,0,1-.15,1.49-2.16,6.89-4.5,13.73-6.49,20.67-3.17,11-6.15,22-9.14,33.07-1.64,6.06-3.28,12.13-4.64,18.26-1,4.31-1.45,8.74-2.14,13.11-.39,2.44-.27,5.1-1.24,7.27-2.25,5-7,7.21-11.38,5.88-5.14-1.54-9.48-8-9.16-12.86,1.09-16.36,5.56-31.89,10.81-47.33,2.65-7.8,3.71-16.12,6-24.05,4.73-16.24,10-32.33,14.7-48.56,3.69-12.6,6.69-25.4,10.54-37.94,3.45-11.26,7.8-22.25,11.46-33.45s6.81-22.56,10.47-33.77c2.77-8.49,6-16.84,9-25.26q2.32-6.54,4.59-13.12Q159,689.65,167,666.11c.38-1.1.68-2.23,1.1-3.32,3.88-9.85,7.9-19.66,11.65-29.56,3.94-10.42,7.56-21,11.44-31.39,4.45-12,9-23.9,13.57-35.84,1.6-4.19,3.56-8.26,4.88-12.53.45-1.43-.56-3.31-.91-5-1.66.49-3.6.6-5,1.54q-27.65,19.18-55.15,38.58c-17,11.92-33.8,24.07-51,35.69-6.57,4.45-13.84,7.91-21,11.44a9.74,9.74,0,0,1-6.74.47,9.51,9.51,0,0,1-5.35-4.46c-.52-1.17,1.14-4.16,2.62-5.24,8.43-6.17,17-12.07,25.7-17.92,5.64-3.81,11.7-7,17.12-11.11,8.62-6.49,16.66-13.73,25.31-20.17,10-7.44,20.39-14.29,30.53-21.51,5.24-3.74,10.22-7.85,15.47-11.57,11.38-8.09,22.65-16.37,34.39-23.9,7.18-4.61,11.38-10.82,14.24-18.55,4.4-11.83,9.22-23.51,13.73-35.31,3.78-9.88,7.21-19.9,11.11-29.73,4.47-11.25,9.4-22.32,13.92-33.55,2.72-6.76,4.87-13.74,7.59-20.5,5.06-12.6,10-25.24,15.63-37.6,6.44-14.2,13.56-28.09,20.33-42.14,2.37-4.94,4.37-10.07,6.93-14.9,3.73-7,7.92-13.79,11.72-20.77,3.95-7.26,7.26-14.9,11.61-21.91,5.07-8.14,10.9-15.82,16.51-23.62,4.55-6.32,8.63-13.15,14.08-18.59,6.87-6.87,14.84-12.67,22.54-18.66,1.41-1.09,3.81-1.15,5.76-1.21,5.66-.19,11.35.12,17-.26,6.36-.42,10.83,2.54,14.63,7.06C441.34,199.87,444.31,208.87,443.77,223.31Z"/><path class="cls-1" d="M1797,1116.72c9,.45,15.32,1,21.64,1a27.26,27.26,0,0,0,9.2-1.67c1.31-.47,2.83-2.83,2.66-4.13-.14-1.13-2.42-2.58-3.94-2.84-4.9-.84-9.89-1.22-14.85-1.74q-15.79-1.66-31.59-3.29a6.4,6.4,0,0,1-2.45-.41c-8-4.72-16.83-3-25.37-3.8-6.08-.58-12.07-2.14-18.14-2.84-5.6-.65-11.31-.41-16.89-1.18a80.93,80.93,0,0,1-15.78-3.67c-1.89-.68-3.87-3.57-4.17-5.69-.47-3.18,1.39-5.56,4.65-7.41,6.44-3.65,12.26-2.72,19.28-1.26,9.54,2,19.71.73,29.57,1.47,6.7.5,13.3,2.2,20,3.06,4.44.58,9,.41,13.42,1,3.06.38,6,1.62,9,2.13,5.53.93,11.12,1.47,16.65,2.44a93.83,93.83,0,0,1,9.37,2.5c1,.27,1.85,1.09,2.77,1.07a54.59,54.59,0,0,1,21.74,4.2c6.38,2.55,13.6,3.09,19.86,5.87,3.82,1.7,6.71,5.78,9.61,9.15.84,1,1,3.7.23,4.68-3.77,4.92-7.42,10.17-12.12,14.1-6.27,5.25-14.94,5.79-22.12,9.16s-13.4,9.08-20.06,13.73c-18.75,13.09-33.72,30-48.13,47.5-3.57,4.34-6.08,9.53-9.49,14-2,2.65-4.51,6.06-8.62,2.7-3.73-3-5-9.78-2.79-13.16,4.91-7.45,9.6-15,14.71-22.36a84.78,84.78,0,0,1,9.58-11.41c11.88-11.81,24-23.41,35.93-35.15.72-.7,1.56-2.27,1.25-2.84a4.18,4.18,0,0,0-3-2.08c-3.47.15-7.5-.22-10.25,1.42-6,3.53-12.12,2.33-18.3,2.54a51.5,51.5,0,0,0-8.33,1.29q-7.27,1.46-14.51,3.11c-4.12.94-8.22,2-12.33,3-.8.2-1.58.55-2.39.71-8.07,1.64-16.21,3-24.22,5-7,1.7-13.94,4.06-20.93,6-7.76,2.2-15.58,4.19-23.32,6.45-7.23,2.11-14.37,4.54-21.59,6.67-6.93,2-13.92,3.89-20.88,5.81-.48.13-1,.13-1.47.29-9,3.06-18,6.08-27,9.24-6.79,2.38-13.54,4.88-20.27,7.43s-13.35,5.42-20.14,7.81c-6,2.09-12.14,3.59-18.13,5.62-2.62.89-4.94,2.6-7.51,3.67q-9.7,4-19.53,7.81c-4.58,1.75-9.32,3.09-13.87,4.91-7.82,3.13-15.52,6.55-23.31,9.73-9.47,3.85-19,7.45-28.47,11.4-7.13,3-14.1,6.39-21.16,9.57-5.38,2.41-10.8,4.73-16.18,7.14-5.21,2.34-10.37,4.81-15.6,7.12-3.76,1.67-7.56,3.23-11.38,4.74-7.93,3.14-15.94,6.09-23.83,9.35-5.33,2.2-10.48,4.85-15.77,7.18-7.53,3.32-15.15,6.43-22.66,9.81s-15.18,7-22.69,10.61c-6.68,3.25-13.35,6.55-19.84,10.17-3.72,2.07-6.83,5.36-10.67,7.07-2.69,1.2-6.88,1.85-9.06.53-1.91-1.15-3.31-6-2.44-8.14,1-2.65,4.56-4.52,7.32-6.25,6.84-4.28,13.81-8.39,20.85-12.36,2.55-1.44,5.51-2.12,8.17-3.4q15.73-7.53,31.39-15.24c7.41-3.64,14.7-7.54,22.19-11,7.11-3.29,14.4-6.19,21.63-9.21,10.5-4.39,21.1-8.57,31.52-13.15,5.21-2.28,10-5.49,15.21-7.82,7-3.15,14.35-5.71,21.43-8.79,8.73-3.78,17.27-8,26-11.7,5.12-2.17,10.56-3.6,15.77-5.59,3.45-1.31,6.73-3.06,10.12-4.54,5.19-2.27,10.35-4.63,15.63-6.67s10.86-3.72,16.23-5.73c3.18-1.19,6.18-2.85,9.36-4.05,10.3-3.89,20.63-7.69,31-11.48,4.37-1.6,8.79-3.06,13.17-4.64,7.27-2.64,14.44-5.57,21.8-7.92,6.33-2,12.87-3.39,19.29-5.13,1.9-.51,3.7-1.37,5.58-2,2.75-.94,5.54-1.79,8.3-2.73q9.53-3.24,19-6.55c1.08-.38,2.07-1.43,3.11-1.45,9.87-.22,18.48-4.7,27.56-7.7,7.5-2.48,15.85-2.63,23-5.65,6.84-2.87,13.84-3.61,20.82-5.12,4-.86,8-1.84,11.9-2.9,2.34-.63,4.63-1.49,6.91-2.31,1.08-.38,2.08-1.19,3.17-1.33q14.83-1.87,29.7-3.55C1785.1,1117.81,1792.37,1117.17,1797,1116.72Z"/><path class="cls-1" d="M280.82,651.1c2.48-2.83,4.78-5.86,7.49-8.46,6.39-6.13,13.95-11.3,19.29-18.21,14.16-18.31,30.66-34.11,48.5-48.67,3-2.42,5.61-5.21,8.44-7.79,3.71-3.39,8-4.3,12.46-2s7.84,6,6.93,11.61A112,112,0,0,1,381,589.15q-7.46,27.2-15,54.37c-3.11,11.23-6.21,22.47-9.53,33.64-1.85,6.22-4.21,12.28-6.18,18.47-.76,2.38-2.62,5.6,1.06,6.71,1.17.36,4-2.32,5-4.18,9.33-17.09,17.87-34.63,27.73-51.4,12.75-21.7,28.33-41.35,44.63-60.61,17.85-21.12,39.13-38,60.74-54.63,14.51-11.15,30-21,47.61-26.95,1.26-.42,2.66-1.38,3.77-1.12,2.23.52,5.06,1.18,6.19,2.79.75,1.07-.38,4.71-1.77,5.83-7.52,6-15.15,12-23.19,17.26a415.68,415.68,0,0,0-55.13,42.78,378.2,378.2,0,0,0-60.85,73.13,483,483,0,0,0-27.81,50.13c-14.2,29.36-27.5,59.17-40.84,88.94-9,20.05-17.35,40.37-26,60.56-4.14,9.63-8.25,19.28-12.58,28.82a30.73,30.73,0,0,1-4.88,7.47c-3.4,3.85-8.33,4-13.12.94-6-3.86-7.13-6.79-5.31-12.26q15.38-46.2,30.63-92.43c5.21-15.8,10.54-31.57,15.4-47.48,5.55-18.15,10.54-36.46,15.95-54.65,6.68-22.5,13.6-44.92,20.24-67.42.52-1.78-.32-4-.54-6-2.13.32-4.78-.08-6.31,1.05-15.4,11.36-30.56,23-45.9,34.49-6,4.45-12.17,8.58-18.32,12.78a40.61,40.61,0,0,1-4.53,2.38Z"/><path class="cls-1" d="M1798.32,818.61c1.8-7.68,2.88-15.61,5.54-23,10.36-28.79,20.79-57.58,32.05-86,7.77-19.62,16.4-39,25.68-57.92,8.62-17.62,18.33-34.74,28.1-51.77,12.18-21.21,24.53-42.34,37.53-63.06,12.64-20.15,26.15-39.75,39.38-59.52,2-3,9.9-4.49,12.89-2.85.41.23,1.08.63,1.06.92-.25,4.88.92,10.58-1.21,14.45-5.1,9.25-12,17.48-17.74,26.39-11.17,17.34-22.4,34.66-33,52.37-12.88,21.56-25.61,43.24-37.5,65.37-11.65,21.69-22.18,44-33.16,66-6.6,13.25-13.31,26.45-19.61,39.85-10,21.23-19.52,42.67-29.53,63.89-2.52,5.33-6.14,10.14-9.25,15.19Z"/><path class="cls-1" d="M1790.9,889.3c-.06,6.32-7.52,15.09-13,15.24-3.81.1-10.38-6.12-10.5-9.95-.18-5.59,8.79-14.78,14.23-14.59C1786.57,880.16,1791,884.58,1790.9,889.3Z"/></svg>