<svg id="Layer_1" data-name="Layer 1" xmlns="http://www.w3.org/2000/svg" viewBox="0 0 1976 1120"><defs><style>.cls-1{fill:#ea1f54;}</style></defs><title>XOXOMarie</title><path class="cls-1" d="M1447.57,630.73c18.41,2.66,36.9,4.85,55.18,8.2,8.09,1.49,14.27.22,20.85-4.68,15.2-11.31,30.86-22,46.48-32.73,13.13-9,26.55-17.64,39.63-26.74,2-1.38,2.83-4.39,4.2-6.65-2.14-1.13-4.18-3-6.44-3.29-8.51-1.17-16.32-3.32-23.64-8.44-10.47-7.34-12.8-17.88-5.34-28.33,12.63-17.69,29.31-30.68,47.65-41.8,12.65-7.66,25-15.81,38-22.82,12.07-6.5,24.94-11.08,39.11-10.51,10.34.42,19.66,3.29,25.34,12.39a28.38,28.38,0,0,1,4,13.93c.2,11.88-5.21,21.79-13,30.45-11,12.18-23.68,22.38-37.14,31.69a129.15,129.15,0,0,0-12.33,9.34c-1.5,1.33-3,4.14-2.53,5.78s3.22,3.08,5.18,3.39c10.72,1.7,21.62,3,30.92,9.07,10.33,6.73,17.44,18.58,10.38,31.35A143,143,0,0,1,1688,634.16c-14.23,13.75-29.29,26.64-44,39.9-2.72,2.45-5.27,5.12-8.14,7.37-4.07,3.2-8.63,3.36-13.16,1-3.88-2-5.66-5.53-4.45-9.59a16.11,16.11,0,0,1,4.81-7.22c13.92-11.87,27.68-24,42.24-35,9.63-7.31,18.65-15,26.1-24.49a117.36,117.36,0,0,0,6.73-9.91c3.32-5.2,2.18-10.66-3.79-13.35a115.7,115.7,0,0,0-20.26-6.72A208,208,0,0,0,1650,572c-6.28-.74-11.82,1.37-17.18,5.21-12.42,8.92-25.42,17-38,25.7q-28.53,19.7-56.8,39.77c-5.23,3.69-6.27,7.34-4,11.88,6.27,12.28,4.87,20.32-4.35,31.43-12.65,15.25-28.28,26.65-45.35,36.26q-19.75,11.13-39.83,21.67a57.5,57.5,0,0,1-13.14,4.64c-6.23,1.5-11.37-.46-15.17-5.95-3.43-5-2.56-9.78.82-13.84,7.86-9.42,15.49-19.2,24.45-27.49,14.38-13.29,29.77-25.5,44.72-38.17,1.14-1,2.59-1.85,3.2-3.11.81-1.67,1.6-3.87,1.13-5.47-.35-1.17-2.69-2.31-4.24-2.47-8-.82-15.93-1.29-23.89-1.92-9.29-.74-18.66-1-27.83-2.42-11.39-1.82-17.41,4-22.17,13-4.08,7.76-7.29,16-11,23.91-4.76,10.07-9.51,20.14-14.56,30.07-9.86,19.38-19.27,39-30.14,57.84a205.78,205.78,0,0,1-24.5,33.73c-10.38,11.66-19.84,7.68-29.36-2.47-12.67-13.52-15.52-30.08-13.26-47.93a45.47,45.47,0,0,0,.45-8.94c-.27-3.59-2.7-4.7-5.49-2.38a24.54,24.54,0,0,0-6.07,7.18c-12,23.1-28.6,42.85-45.28,62.49a181.81,181.81,0,0,1-24.75,24.41c-6.07,4.84-13.83,8-21.3,10.51-7.25,2.43-13.72-1.73-19.22-6.12-10-8-13.17-18.9-11.44-31.31a362.16,362.16,0,0,1,19.46-77.83c10.13-27,21.39-53.42,35.26-78.69,10.08-18.35,19.79-36.94,30.87-54.67,11.62-18.59,24.4-36.49,37.2-54.31a208.6,208.6,0,0,1,38.42-41.09c6.83-5.5,14.39-10.38,24.28-6.69,2.17.8,5.19-.54,7.79-1.05,11.49-2.26,17.23,3.89,14.57,15.24-5.91,25.13-11.43,50.35-17.48,75.44-3.19,13.25-7.09,26.34-10.78,39.48-2.92,10.41-5.82,20.82-9.06,31.13-4.43,14.13-9.63,28-13.64,42.26a144.25,144.25,0,0,0-5,27.93,382.17,382.17,0,0,0-1,42.4c.21,6,2.73,12.3,5.42,17.88,3.65,7.57,9.82,8,14.79,1.3,5.91-8,11.32-16.4,16.65-24.81,7.82-12.36,15.43-24.85,23-37.36,3.1-5.12,6-10.38,8.78-15.66,3.82-7.19,7.44-14.48,11.2-21.69,4.68-9,9.36-18,14.16-26.87a62,62,0,0,1,5.1-7.95c3.2-4.26,2.8-8-1.76-11a21.92,21.92,0,0,0-6.36-2.74c-18.33-4.76-28.82-23.39-24-40.47,5.3-18.83,14.78-35.52,26.92-50.73,10.17-12.75,20.24-25.58,30.87-37.92,6.94-8.06,14.6-15.55,22.31-22.89,10.12-9.62,20.13-19.46,31.07-28.09,12.77-10.07,26.24-19.32,39.93-28.11,4.69-3,10.87-4.62,16.5-5,10.28-.74,20,9.55,14.46,20.58-5.42,10.81-11.13,21.72-18.44,31.27-12.41,16.2-26.47,31.14-39.3,47-12.21,15.13-23.92,30.67-35.46,46.32-6.51,8.82-12.23,18.22-18.28,27.36q-6,9.12-12,18.26c-3.51,5.39-.6,11.25,6.06,12a80.1,80.1,0,0,0,8.49,0Zm-107-109.87c-1-1.57-2.06-5.24-4.11-5.91-2.44-.8-6.41.1-8.52,1.77-14.67,11.67-26.82,25.86-38,40.75-8.66,11.53-16.31,23.85-24,36.06-10.12,16-20.63,31.81-29.59,48.44-10.32,19.15-18.93,39.21-28.68,58.67a335.16,335.16,0,0,0-23.74,62.94c-4.8,17.78-7.84,36-11.44,54.14-1.25,6.25,1.76,11.09,6.68,14.59a10.16,10.16,0,0,0,11.82.15c6.12-4,12.85-7.6,17.61-12.91,12.75-14.21,25.4-28.64,36.58-44.07,13-18,24.44-37.16,36.59-55.81,8.54-13.12,13.74-27.54,17.06-42.79,3.44-15.75,7-31.5,11.07-47.09,3.68-14,8.28-27.71,12.36-41.58,4.32-14.67,8.6-29.35,12.69-44.08C1336.9,536.93,1338.44,529.59,1340.55,520.86Zm198.24-66.57c.2-5.33-2.91-7.25-6.67-4.89-6.19,3.89-12.25,8-18.08,12.42a460.25,460.25,0,0,0-69.45,65c-10.36,11.86-19.71,24.64-29.1,37.32-9.9,13.37-19.08,27.17-22.8,43.87-1.33,6,.21,11,4.55,14.38,4.84,3.83,10.09,8,17.18,6a6.29,6.29,0,0,0,3-1.61c3.1-3.79,6.14-7.63,8.94-11.64,1.4-2,2.09-4.52,3.35-6.65,5.74-9.71,11.26-19.56,17.43-29,9.19-14,18.4-28.07,28.44-41.48,10.57-14.1,22.34-27.29,33.18-41.19,9.09-11.65,17.65-23.7,26.31-35.67A49.57,49.57,0,0,0,1538.79,454.29Zm162.7,14.06c-5,1.07-9.87,1.63-14.4,3.14-18.16,6.05-34.23,16.15-49.83,26.92-14.23,9.83-28.29,19.94-40,32.89-6.07,6.71-4.94,13.08,3.72,15.47,9.1,2.52,18.55,3.77,27.82,5.67a23.21,23.21,0,0,0,19.36-4.34c17.24-13,34.71-25.74,51.33-39.51,6.45-5.35,11.54-12.76,16-20,4-6.58,1.81-14.12-4.15-17.42C1708.41,469.56,1704.78,469.24,1701.49,468.35ZM1523.4,666.92c-1.57-2.12-2.76-5.41-4.65-5.88-2.62-.66-6.5-.13-8.59,1.49-11.16,8.66-22,17.69-32.8,26.82-10.53,8.92-20.94,18-31.12,27.28-2.46,2.25-7,5.18-4.38,9,2.46,3.57,6.47.5,9.31-1.18,13.42-7.95,26.83-15.93,40-24.25,11.16-7,21.31-15.36,28.79-26.46A62.4,62.4,0,0,0,1523.4,666.92Z"/><path class="cls-1" d="M645,597.92c18.46.62,34.25-7.07,49.54-16.18,30.65-18.24,56-42.47,79.71-68.88,10.85-12.08,15.91-26.17,20.65-40.94a202.19,202.19,0,0,1,10.4-27c6.83-14,14-27.92,22.08-41.26a445.85,445.85,0,0,1,26-38.32c13.55-17.88,27.43-35.55,42.08-52.52,10.85-12.57,23.1-23.92,34.82-35.72,4.56-4.59,8.81-9.87,14.22-13.16a69.82,69.82,0,0,1,21-8.63C976.33,253,986,261.79,987,272.88c1.28,13.88,1,27.66-2.25,41.19-4.6,19.28-15.52,35.28-28.29,49.9-16.61,19-35.46,35.63-57.09,48.72-9.61,5.82-19.49,11.79-31.17,12.74a82.33,82.33,0,0,1-14.39-.1c-6.16-.59-10.28,1.1-13.06,6.78-2.4,4.91-4.09,10.19-6.63,15-8.94,17.07-18.06,34.05-27.21,51-6.32,11.69-5.81,23.07,1.94,31.53,7.26,7.93,16.57,8.33,26.32,6.54,12.09-2.21,22.56-8.41,32.48-15,14.94-9.88,29.27-20.77,43.42-31.79,19-14.81,34.91-32.71,49.55-51.74a516.29,516.29,0,0,0,46-70.47c8.56-16,16-32.51,23.82-48.86,1.06-2.22,1.19-4.87,2.13-7.17,1.51-3.69,4.07-6.13,8.47-5.4,4.65.78,5.6,4.53,4.77,8a118.75,118.75,0,0,1-6.06,17.82c-3.42,8.12-7.22,16.09-11.11,24-5.35,10.88-10.79,21.73-16.47,32.44-13.37,25.21-30,48.32-47.92,70.38a292.36,292.36,0,0,1-53,51.29c-11.5,8.49-22.67,17.6-34.91,24.87-12.49,7.41-25.15,15.12-39.89,17.78-19.1,3.46-35.56-3.77-45.85-20.15-3.94-6.27-7-6.7-12-1.26a437.72,437.72,0,0,1-54.76,50.25,189.93,189.93,0,0,1-42.17,24.45c-14.2,6.05-28.75,9.14-44.17,8.39-16.07-.77-34.88-14.79-33.67-34.31,1.32-21.29,4.64-41.94,11.44-62.13,10.69-31.73,25.18-61.51,44.42-89,9.16-13.06,18-26.34,27.31-39.32,4.53-6.34,9.57-12.36,14.63-18.3,7.12-8.34,14.08-16.88,21.85-24.6,9.77-9.71,20-18.88,32.86-24.8,11.2-5.16,26.73,2.52,26.43,15.82-.23,9.73-1,19.8-3.76,29.06a219.77,219.77,0,0,1-32.74,65.87c-9.41,13.08-17.66,27-27.57,39.69-13.52,17.28-27.32,34.49-42.5,50.29-14,14.6-30,27.3-45.14,40.82a14.14,14.14,0,0,1-2.1,1.34c-7.73,4.66-10.46,10.55-8.64,18.71,1.91,8.56,7.5,13.75,16.14,14.65A82.87,82.87,0,0,0,645,597.92ZM768.81,344.27c-1.26-2-2.25-5.75-4.1-6.24a16,16,0,0,0-9.79,1.1,29.71,29.71,0,0,0-9.25,6.7c-12.13,12.75-24.76,25.13-35.83,38.77-17.81,21.91-34.41,44.82-48,69.67-7.65,14-15.09,28.09-21.61,42.6-5,11.18-8.45,23.07-12.58,34.65-1.23,3.44-2.86,6.81-3.45,10.36-.31,1.93.6,5.17,2,6s4.59-.34,6-1.67c9.84-9.2,20-18.18,29-28.14,23.23-25.63,45.39-52.09,64.62-81,14.13-21.26,27.94-42.52,36.07-66.88C764.62,362,766.38,353.48,768.81,344.27Zm203.23-57c-.11-1.76-.09-3.27-.3-4.75-1.5-10.43-7.38-13.26-16-7.17a116.17,116.17,0,0,0-16.34,13.83c-12.8,13.29-25.25,26.93-37.72,40.54-18.45,20.13-34.61,42.05-50.17,64.43-4.1,5.9-3.12,10.87,3.29,14,2.92,1.43,7,2.3,10,1.38,8.36-2.62,17.16-5.08,24.4-9.76,24.13-15.56,45.76-34,63.27-57.16C965.12,325.86,970.53,307.26,972,287.23Z"/><path class="cls-1" d="M1057.11,857.94a282.37,282.37,0,0,1,13-81.26c.82-2.65-.05-5.82-.13-8.74-2.21,1.66-5,2.92-6.52,5.07-6.69,9.32-12.85,19-19.52,28.35-10.64,14.88-21.13,29.9-32.43,44.28-15.3,19.47-30.74,38.91-47.17,57.42C946.15,923.6,927,943.3,904.22,959.14c-12.36,8.61-24.35,9.34-35.35,2.24-4.41-2.85-6.09-6.77-6.81-11.57-2.11-13.94-2.22-27.83,1.43-41.56,5.13-19.28,10-38.66,15.73-57.74,5-16.54,10.9-32.82,16.92-49,3.05-8.24,7.33-16,10.85-24.08,1.46-3.34,2.08-7.07,3.64-10.34,6.1-12.76,12.21-25.52,18.72-38.07,6.34-12.24,13-24.32,19.84-36.29a229.43,229.43,0,0,1,35.09-47.08c4.69-4.78,10.66-8.6,16.63-11.73,9.14-4.77,21.47.7,26.17,11,2.82,6.14,4.41,12.46,3.11,19.39-1.87,10-3.3,20-5.07,30a15.8,15.8,0,0,1-2.15,5.55c-1.89,3-4.16,6.34-8.33,4.48-3.83-1.7-3.89-5.4-3.13-9.08,1-5.05,2.21-10.07,3-15.16s1.12-10.26,1.51-15.4a30,30,0,0,0-.11-6.49c-1.4-9.29-8.71-12.34-15.83-6.22-5.4,4.65-10.84,9.58-15,15.31-7.88,10.89-15,22.31-22.13,33.76-6.71,10.87-13.64,21.71-19.2,33.17-9.06,18.69-17.44,37.74-25.46,56.91-7,16.7-13.44,33.66-19.46,50.74-4.52,12.85-8.13,26-11.85,39.14-2.59,9.12-5,18.33-6.87,27.62-1.9,9.45-3.17,19-4.42,28.6S881.13,951.55,890,948c11-4.43,20.35-11.33,28.84-19.38a524.64,524.64,0,0,0,53.8-59c12.64-16.3,26.06-32,38.59-48.4,23.14-30.28,43.92-62.2,64.11-94.49,12.44-19.88,20.33-41.82,28.53-63.61q11.33-30.12,23-60.12c8.11-20.92,16.19-41.86,24.64-62.65,8.07-19.86,17-39.4,24.83-59.35,9.47-24,18-48.32,27.46-72.27,4.21-10.62,9.84-20.68,15-30.92a29.13,29.13,0,0,1,4-5.72,10.55,10.55,0,0,1,12.76-2.47c3.31,1.87,4.66,7,2.71,11.68-2.36,5.67-5.18,11.14-7.52,16.82-10.55,25.68-21.43,51.24-31.38,77.15-10.32,26.87-19.6,54.14-29.55,81.16-6.66,18.09-13.34,36.19-20.63,54-8.6,21.08-18.31,41.7-26.72,62.85-7.92,19.92-15.79,39.95-21.84,60.48-7.32,24.88-13.06,50.24-18.8,75.55a178.87,178.87,0,0,0-4.89,43.09c.21,11.6-2.39,23.31,1.1,34.75a76.58,76.58,0,0,0,5.94,14.1c2.34,4.29,2.92,8.61.15,11-3.71,3.2-7.32,1.52-10.39-1A37.49,37.49,0,0,1,1060,888.16C1058.34,878.19,1058,868,1057.11,857.94Z"/><path class="cls-1" d="M573,110.62c0,3.5.16,7,0,10.49-.22,3.71-1.31,7-5.84,7.4-3.42.29-7.44-3-7.92-7-.62-5.11-.09-10.44-1.28-15.38-1.33-5.5-3.07-11.38-6.36-15.81-6.33-8.49-13.72-8.81-21.13-1.13a250.8,250.8,0,0,0-20.6,24.27,307.23,307.23,0,0,0-33.9,58c-7,15.6-14.81,30.84-21.38,46.61-8.11,19.48-15.26,39.35-22.9,59-3.91,10.06-7.93,20.08-12,30.08-3.54,8.75-7.38,17.38-10.66,26.22-.88,2.38-.2,5.33-.23,8,2.95-.58,6.26-.49,8.8-1.85,14.79-7.88,29-16.9,44.18-24,17.43-8.17,35.56-14.87,53.5-21.94a128.83,128.83,0,0,1,17.21-5.08c4.45-1.06,9-1,12.76,2.32,3.56,3.2,3.83,7.74.29,10.9a20.77,20.77,0,0,1-6.82,3.94c-17.54,6.21-35.62,11.17-52.61,18.61C466,333.08,446.74,343.75,427.35,354c-8.63,4.57-16.67,10.25-25.09,15.23-4.73,2.79-7.54,6.83-9.29,11.89-4.84,14-9.6,28-14.73,41.94-6.85,18.53-14.19,36.87-21,55.41-4.64,12.64-8.65,25.5-13.08,38.21-6.63,19-13.63,37.9-20,57-5.62,16.87-10.49,34-15.87,50.94-3.57,11.24-7.72,22.3-11.15,33.58-3.9,12.84-7.23,25.86-10.92,38.78-1.69,5.91-3.81,11.69-5.43,17.62-4.15,15.24-8.23,30.51-12.11,45.82-.76,3-.47,6.29-.7,9.45-.34,4.8-3.6,8.93-7.83,9.79-5,1-8.74-1.19-10.54-5.57-1.34-3.24-2.46-7.23-1.8-10.52,2.58-13,5.68-26,9-38.88,3.61-14,7.54-28,11.61-41.84,2.61-8.93,5.93-17.65,8.6-26.57,3.43-11.48,6.35-23.11,9.83-34.57,2.51-8.27,5.72-16.32,8.35-24.55,4.77-14.9,8.94-30,14.1-44.77,9.7-27.76,19.8-55.37,30-83,7.81-21.22,16-42.32,24-63.46.7-1.85,2-3.51,2.51-5.41s.67-4.89-.11-5.29a7.12,7.12,0,0,0-5.87-.07c-3.32,1.82-6.17,4.49-9.28,6.71Q335.75,412.48,320.9,423c-14.11,10-28.14,20.12-42.36,29.95-8.06,5.57-16.37,10.81-24.72,15.95-4.7,2.9-10.54,2.3-12.29-.78-2.45-4.3.4-9.43,5.67-12.68,10-6.2,19.95-12.64,29.46-19.6,14.75-10.81,29-22.31,43.7-33.18,14.17-10.45,27.86-21.95,43.24-30.25s20.91-22,26.39-36.48c6.66-17.57,12.87-35.32,19.57-52.89,7.58-19.87,15-39.85,23.4-59.36,7.58-17.53,16.51-34.47,24.79-51.69,1.52-3.15,2.65-6.47,4.14-9.63a303.38,303.38,0,0,1,31.24-52.66c7.16-9.56,14.57-18.93,22.1-28.2a64,64,0,0,1,8.61-8.24,7,7,0,0,1,4.1-1.21c9.17-.12,18.33-.21,27.49,0a7.73,7.73,0,0,1,4.78,2.58C569.52,84.8,574.8,96.47,573,110.62Z"/><path class="cls-1" d="M124,886.93c-2.83,0-5.67.13-8.49,0a8.93,8.93,0,0,1-8.31-8.41c-.17-4.12,2.62-7,7.55-7.68a16.5,16.5,0,0,1,4-.09c16,1.84,32,3.74,48,5.58,9.75,1.12,19.57,1.78,29.26,3.3,21,3.29,41.91,7.18,62.91,10.51,23.66,3.76,47.45,6.75,71,10.89,19.65,3.45,39.09,8.1,58.63,12.18,9.92,2.07,19.91,3.81,29.77,6.14,7.26,1.71,14.32,4.23,21.52,6.21,20.84,5.76,41.85,10.94,62.51,17.26,22.1,6.77,44.17,13.83,65.67,22.25,11.6,4.55,22,12.15,32.88,18.52,4.44,2.6,8.53,5.81,13,8.27,1.32.72,3.54-.2,5.34-.36-.41-1.65-.29-3.86-1.33-4.84-7.74-7.28-15.53-14.52-23.65-21.36-12.06-10.16-24.35-20.06-36.68-29.89-3.36-2.67-7.52-4.35-10.82-7.09a43.44,43.44,0,0,1-8.63-9.39c-2-3-1.74-6.65,1.07-9.68s6.48-3.94,9.93-1.81c5.63,3.48,11,7.38,16.3,11.39,11.62,8.85,23.37,17.55,34.55,26.93,9,7.56,17.48,15.81,25.81,24.13,8.69,8.68,17.48,17.37,25.22,26.87,10,12.34,7.14,20.44-8,24.27-3.43.87-7.49,1.27-10.79.31-18.89-5.52-37.71-3.1-56.32.63-12.84,2.57-25.37,6.77-38,10.44a26,26,0,0,0-6.52,3.54c-4.42,2.9-9.89,2.58-12.67-.91s-2.1-8.32,1.83-12c1.19-1.13,2.49-2.45,4-2.91,10.27-3.16,19.51-8.7,30-11.68,9.57-2.71,19.26-3.28,28.71-5.54,3.57-.85,6.68-3.65,10-5.56-2.78-2.37-5.19-5.56-8.4-7a635.48,635.48,0,0,0-69.16-25.45c-18.28-5.56-36.52-11.32-54.87-16.69-8.27-2.42-16.76-4.13-25.17-6.11q-14.79-3.5-29.61-6.89-24.33-5.54-48.66-11c-8.26-1.85-16.47-4-24.81-5.4q-37.64-6.45-75.35-12.44-61.41-9.71-122.86-19.06c-3.42-.52-7-.07-10.48-.07Z"/><path class="cls-1" d="M508.92,405.22c6.92.85,12.26,7.35,10.51,14.33-4.21,16.77-8.69,33.48-13.57,50.06-4.7,16-10.11,31.71-15,47.6-.46,1.48.35,3.35.58,5,1.45-.82,3.52-1.28,4.24-2.53,4.76-8.19,9.66-16.34,13.71-24.89,10.32-21.78,23.94-41.43,38.84-60.17A273.62,273.62,0,0,1,602.16,383c14.25-10.29,29.2-19.63,44-29.2a14.69,14.69,0,0,1,7.51-2.4c2.29,0,6,1.1,6.53,2.62.75,2.12,0,5.93-1.6,7.51a75.75,75.75,0,0,1-13.4,10.36,330.57,330.57,0,0,0-73,60.8c-14.49,16-27.79,33.2-38.16,52.32-8.63,15.9-17.35,31.8-25,48.18-11.15,23.76-21.42,47.95-32,72-7.65,17.33-15.19,34.71-22.91,52-3.64,8.19-7.27,16.4-11.47,24.31-3.22,6-7.8,7.54-12.7,5.22-5.44-2.58-8.6-9.24-6.09-14.73,7.94-17.32,12.62-35.68,18.17-53.79,6.2-20.2,13.26-40.12,19.54-60.29,4.3-13.83,7.63-27.95,11.88-41.79,6.9-22.41,14.3-44.68,21.2-67.09.76-2.45-.33-5.47-.56-8.22-2.69.63-6,.47-8,2-10.83,8.54-21.18,17.68-32,26.22-4.53,3.57-9.78,6.27-14.84,9.15-1.12.64-2.78.33-4.2.46.36-1.45.27-3.29,1.14-4.3,7-8.2,14.47-16.08,21.39-24.38,13.2-15.84,29.78-28,44.9-41.77C504.09,406.67,506.73,406.19,508.92,405.22Z"/><path class="cls-1" d="M1910.89,335.44c.5,4.56-.43,8.5-5.68,11.82-3.75,2.37-5.82,7.53-8.41,11.59-5.53,8.67-11,17.38-16.31,26.18q-12.49,20.69-24.74,41.54c-17.4,29.69-33.85,59.87-48,91.3-8,17.71-16.76,35-24.89,52.67-5.35,11.61-10,23.53-15.3,35.18a67.71,67.71,0,0,1-7.18,11.9c-1,1.36-3.33,1.72-5.06,2.54-.48-1.76-1.39-3.52-1.38-5.27.08-12.9,6.88-23.85,10.7-35.66,1.9-5.85,4-11.63,6.37-17.32,3.51-8.6,7.21-17.12,11-25.61,7-15.83,13.75-31.75,21.14-47.39q9.68-20.49,20.55-40.42c8.17-15,16.51-30,25.54-44.54,15-24.11,30.51-47.9,46-71.67a20.4,20.4,0,0,1,7.44-6.39c5-2.65,7.94-.65,8.2,4.87C1910.94,332.09,1910.89,333.42,1910.89,335.44Z"/><path class="cls-1" d="M1723.82,696.48c1.11-6.33,4.76-11.33,10.3-13.06a8.31,8.31,0,0,1,9.75,3c2.94,3.79,2.39,9-1.56,13.62s-9.46,6.62-13.07,3.9C1726.88,702.21,1725.59,699,1723.82,696.48Z"/></svg>