<svg id="Layer_1" data-name="Layer 1" xmlns="http://www.w3.org/2000/svg" viewBox="0 0 1536 1944"><defs><style>.cls-1{fill:#ea1f54;}</style></defs><title>CustomCursor</title><path class="cls-1" d="M925.09,468.14c-6.54.95-13.07,2-19.62,2.8-3.1.38-6.26.19-9.38.41a34.64,34.64,0,0,0-5.85.83c-4,1-7.87,2.73-11.9,3.12-8.2.78-16.16,2-23.5,6.05a9.6,9.6,0,0,1-5.78,1.29c-7.37-1.28-13.52,2.56-20.25,4-8.55,1.79-17.48,1.82-26.26,2.4-4,.26-8.1.54-12-.18a35.26,35.26,0,0,1-10.25-4.16c-3.9-2.15-7.4-5-11.21-7.31-7.45-4.53-9.11-8.19-7.34-16.71a8.72,8.72,0,0,0,.21-3.47c-1.64-7.5.43-14.51,2.58-21.55.37-1.24,0-2.72-.09-4.09-1.28.53-2.93.72-3.79,1.64-12.25,13.09-24.17,26.44-33.87,41.64-1.9,3-5.29,5-7.78,7.64-8.53,9.12-16.64,18.66-25.5,27.43-13.78,13.64-27.91,26.94-42.18,40.07-5.1,4.69-8.19,9.86-8.29,16.83,0,2.48-.07,5.16-1,7.39-2.56,6.21-2.78,12.21,0,18.38a8.73,8.73,0,0,1,.68,4.4c-1.07,9-2.54,17.95-3.44,27-1.4,14.05-3.24,28.13-3.47,42.23-.45,26.49,0,53,.34,79.48a57.85,57.85,0,0,0,2.18,14.24c1.71,6.27,6.33,10.08,12.51,11.79,5.22,1.45,11.08-2.76,13.81-9.75.66-1.71.91-3.57,1.6-5.26,2-4.87,4-9.72,6.17-14.5,2.36-5.21,4.86-10.37,7.38-15.5,4.22-8.61,8.77-17.07,12.67-25.81,2.08-4.67,3.15-9.79,4.57-14.73.88-3,1.3-6.24,2.5-9.13.45-1.12,2.46-2.1,3.79-2.13.69,0,2.12,2.19,2.06,3.33q-1.12,23.36-2.7,46.69c-.17,2.41-1.69,4.68-2.27,7.1-1,4-1.63,8.09-2.55,12.12-1.21,5.27-2.45,10.53-3.88,15.74-.95,3.5-2.18,6.93-3.41,10.35-1.5,4.17-3.11,8.31-4.73,12.43-.67,1.7-2.1,3.32-2.14,5-.22,10-7.87,14.75-14.38,19.76a32,32,0,0,1-24.06,6.41c-4.11-.56-7.87-3.34-11.95-4.57a31.53,31.53,0,0,1-15.64-11c-4.87-6.07-9.28-12.37-10.93-20.38-1.53-7.38-4.14-14.54-6.24-21.8a10.73,10.73,0,0,1-.5-3c0-12.73,0-25.45-.1-38.18,0-3.32-.37-6.64-.41-10-.08-5.64-.09-11.29,0-16.94.08-4.79.36-9.58.53-14.37.32-8.64,1.15-17.31.81-25.92a300.77,300.77,0,0,1,1.89-45.22c.41-3.78-2-5.38-5.89-3.73-6.88,2.95-9.87,9-11.75,15.78-1,3.8-2.29,7.54-3.5,11.29-.61,1.89-1.45,3.72-2,5.63q-7.18,25.67-14.29,51.37c-2,7.35-3.63,14.82-5.87,22.1-1.56,5-4.09,9.77-5.8,14.77-1.53,4.47-2.45,9.14-3.76,13.69-1,3.59-2.21,7.15-3.43,10.69-.37,1.08-1.45,2-1.62,3.05-2.5,15-10.56,27.95-15.86,41.91-3.74,9.86-8.85,19.2-13.14,28.87-1.47,3.33-2.28,6.94-3.44,10.41a41.78,41.78,0,0,1-1.76,4.64c-11.15,23.33-26.6,43.65-44.53,62.07-3.53,3.62-8.87,5.48-13.38,8.16-3.42,2-6.72,4.32-10.29,6.05a29.41,29.41,0,0,1-8.38,2.58c-3.11.46-6.33.11-9.49.27-10.75.57-21-.66-31.24-4.78-5.45-2.2-12-2-18.11-2.12-6.51-.11-9.07,5.7-11.09,10.26-3.87,8.72-8.92,16.82-11,26.59-1.83,8.73-6.94,16.8-10.82,25.06-4.46,9.51-8.94,19-13.83,28.35-3.69,7-8,13.79-12.1,20.6-7.51,12.4-15.39,24.6-26.42,34.19-6.61,5.73-14,10.53-21.15,15.68a5.44,5.44,0,0,1-2.81.93c-8.13.42-16.27.92-24.42,1a66,66,0,0,1-13.4-1,43.43,43.43,0,0,1-10.51-3.86c-4-2-8.42-3.74-11.55-6.75a219.06,219.06,0,0,1-21-22.53c-6.09-7.76-11-16.48-16.24-24.85a34.89,34.89,0,0,1-2.9-6.33c-2.69-7.13-7.47-11.33-15.23-12.74-4.21-.76-8.11-3.23-12.11-5-1.79-.8-3.42-2.48-5.23-2.66-4.49-.43-5.93-2.72-5.61-6.89a40.33,40.33,0,0,0-.09-6.5c-.4-4.69.5-8,6.22-8.54,4.48-.43,5.27-4,4.74-7.88-1.86-13.62.43-27.06,1.58-40.56.62-7.34,3-14.73-1-22a13.74,13.74,0,0,1-1.24-6.33c-.13-16.79,0-33.59-.2-50.39-.09-10.15-.82-20.29-.7-30.43.11-9.57,1-19.13,1.43-28.7.06-1.15-.28-2.3-.32-3.45-.27-6.61-.69-13.21-.69-19.82,0-7.61.3-15.22.61-22.83.4-9.56,2.08-19.23,1.08-28.63-1-9,1.28-17.11,2.32-25.66.84-6.93-.87-14.14,3-20.7.46-.78.29-2,.33-3,.39-9.44.55-18.89,1.24-28.3.29-4.09,1.7-8.09,2.51-12.14.46-2.25.83-4.53,1.07-6.81.2-2-.29-4.11.31-5.92,3.48-10.43,3.7-21.23,4-32a8.93,8.93,0,0,1,.31-3.46c4.18-8.63,4.5-17.92,5.31-27.22.27-3.2,2.23-6.64,4.34-9.2,3.15-3.83,4.57-7.64,3.05-12.4-1.65-5.16-.32-9.52,2.47-14.15,2.11-3.5,2.58-8,3.64-12.11.33-1.26,0-2.7.32-3.95,3.1-11.21,6.76-22.29,9.3-33.62,2.82-12.56,10.2-23,14.87-34.62,1-2.46,1.54-5.08,2.48-7.55,1.41-3.69,3.76-7.2,4.34-11,1.55-10.05,8.74-17.28,12.3-26.29,1.39-3.53,3.49-6.79,5.22-10.2,8.89-17.47,21.93-31.49,37.78-42.55,6.46-4.5,14.81-6.38,22.45-9a8.76,8.76,0,0,1,6.28.84c8.63,4.66,17.79,9,22.64,18.09,1.82,3.43,1.93,7.88,2.35,11.92a102.92,102.92,0,0,1,.2,11.39q-.08,8.37-.32,16.76c-.11,3.82-.31,7.64-.54,11.46-.66,10.62-1.31,21.24-2.1,31.85-.12,1.6-1.09,3.12-1.47,4.72-1.19,5-2.72,9.9-3.32,14.94-.74,6.27-.66,12.63-1,18.95-.07,1.31-.08,2.92-.81,3.86-7.81,10-4.78,22.38-7.21,33.54-.41,1.93-.39,4.19-1.42,5.7-4,5.83-5,12.19-4.61,19.05.12,2.26,0,5-1.15,6.77-4.63,7.23-4.61,15.41-5.89,23.43-1.07,6.67-3.51,13.11-5,19.72C277.68,565.47,277,570.75,276,576c-.6,3.06-1.35,6.09-2.16,9.11-1.25,4.71-2.72,9.37-3.91,14.1s-2.05,9.66-3.23,14.45c-.88,3.54-2.07,7-3,10.51-1.58,5.76-3.19,11.51-4.6,17.3-1.14,4.67-2,9.42-3,14.12-.55,2.59-1.18,5.16-1.79,7.73-1.46,6.14-2.9,12.28-4.41,18.41-3,12.05-6.13,24.06-8.93,36.16-2.23,9.6-7.09,18.69-5.16,29.17.47,2.54-1.37,5.54-2.3,8.28-1.42,4.18-3.08,8.29-4.43,12.49s-2.44,8.54-3.74,12.79c-1.36,4.44-3.11,8.77-4.22,13.26-3.11,12.69-4.71,25.77-11.51,37.41-1.83,3.12-1.75,7.33-2.62,11-1.32,5.62-2.61,11.25-4.09,16.83-.89,3.37-2,6.67-3.2,10a91.46,91.46,0,0,1-4.18,11.15c-3.88,7.76-1.9,16.06-2.82,24.08a100.78,100.78,0,0,1-3.17,17.4c-1.63,5.37-3,10.42-1.6,16.09.72,3,.21,6.23.4,9.35a52.68,52.68,0,0,0,.88,7.85c1.13,5.18,2.48,10.31,3.84,15.43.33,1.25.71,2.79,1.61,3.54,4.33,3.62,4.74,8.86,6.51,13.67,2.33,6.3,5.91,12.15,9.06,18.14.68,1.29,2.26,2.2,2.72,3.52,2.48,7.13,8.41,11.1,13.37,16.22,5.88,6.06,12.68,7.56,19.84,7.06,10.42-.73,20.6-3.72,26.91-13,8.46-12.49,16.7-25.14,24.33-38.13,4-6.77,6.44-14.42,9.58-21.68.27-.61.42-1.27.73-1.86,3-5.66,6.1-11.24,8.87-17,2.08-4.3,3.62-8.85,5.54-13.23,3-7,6.42-13.84,9.3-20.9,3.53-8.64,9.11-17.32,9.5-26.17.8-18.33,6.15-36,6.11-54.32,0-8.8-.78-17.6-1.05-26.41-.19-6.39,1.35-12.68-1.26-19.18-1.24-3.08,1-7.42,1.21-11.22.8-15.95,2.29-31.93,1.83-47.85-.4-13.85,3.46-26.92,4.7-40.41,1-10.87,1.64-21.77,2.93-32.59.46-3.87,2.57-7.52,3.5-11.36,1-4.27,1.58-8.65,2.36-13,1-5.68,1.88-11.4,3.18-17,1.49-6.42,3.19-12.8,5.15-19.09,2.61-8.36,5.36-16.69,8.42-24.9,2.6-7,6.51-13.2,10.66-19.5A67.87,67.87,0,0,1,406.33,526c4.26-3.05,10.95-3.53,16.58-3.63,6.18-.1,13.74-.43,17.59,5.18,6.2,9,14.38,17.75,10.92,30.57-.79,2.91.29,6.28.11,9.41-.24,4.07-1,8.11-1.34,12.17-.33,3.42-.94,6.9-.61,10.27a37.32,37.32,0,0,1-1.83,16.58c-1.95,5.62-2,12-2.25,18.09-.48,11-.48,21.94-.78,32.91a7.5,7.5,0,0,1-1.08,3.82c-5.7,8.58-4.72,18.45-5.8,28-.45,3.9-2.56,7.61-3.84,11.43-1,3.08-2.14,6.17-2.9,9.33-1.13,4.65-1.73,9.44-3,14-3,11-6.26,22-9.54,33C414.43,771,410,784.74,406,798.62c-3,10.32-5.73,20.72-8.41,31.13a34.09,34.09,0,0,0-.55,7c-.09,2,.66,4.37-.17,5.93-3.1,5.85-.89,11.35-.05,17.15,1.62,11.26,8,17.28,19.4,17.18,15.53-.12,28.95-4.46,37.36-18.74,2.74-4.66,5.33-9.4,8-14.08,1.07-1.86,1.94-4,3.46-5.42,5.78-5.43,10.59-11.28,12.6-19.27,2.46-9.8,8.56-17.87,13.34-26.59,3.88-7.07,6.5-14.82,9.64-22.29q6.15-14.66,12.22-29.33A12.34,12.34,0,0,0,514,738c.69-6.22,2.11-12.11,6.74-16.72a.8.8,0,0,0,.24-.44c.53-9.8,5.16-18.2,8.69-27.08,4.19-10.55,6.75-21.68,12.37-31.79,2.32-4.18,2.77-9.52,3.57-14.41.46-2.89-1.92-3.9-4.3-3.14a24.8,24.8,0,0,0-7,3.57c-6.42,4.72-12.95,9.36-18.91,14.63s-11.38,11.6-17.31,17.15a134.15,134.15,0,0,1-14.2,11.64,8,8,0,0,1-6.58.64c-6.08-2.52-9.7-7.59-11.06-13.9-1.27-6,.75-11,5.43-15.18,13.91-12.41,27.59-25.06,41.48-37.49,5.8-5.19,11.93-10,17.81-15.1q6.38-5.54,12.45-11.4c7-6.78,13.77-13.84,20.9-20.49,8.47-7.9,11.5-18.53,14.74-28.92,3.42-10.93,6-22.14,8.86-33.22a10.06,10.06,0,0,1,.76-2.89c7.17-11,6.68-24.21,10.7-36.13,1.35-4,1.22-8.51,1.78-12.79.26-2,.11-4.16.94-5.86,3.92-8.12,3.79-16.71,3.93-25.42.51-31.12,1.32-62.24,2-93.36.15-6.16,14.57-19.16,20.64-18.69,12,.92,22.72,14.13,21.71,26-.63,7.43-.1,15-.16,22.46,0,2.8-.07,5.62-.35,8.41-.86,8.41-2.59,16.82-2.6,25.23,0,11.75,1.37,23.49,1.86,35.25.21,5.12-.27,10.27-.51,15.4-.13,2.82-.48,5.64-.6,8.46-.37,9.4-.92,18.81-.95,28.21,0,6.2,2.7,7.6,7.82,4.21a43.88,43.88,0,0,0,8.72-7.41c9.91-11.2,23.22-18.26,34-28.29,6.8-6.31,12.46-14,19.69-19.68,10.34-8.19,21.68-15.1,32.48-22.71a33.8,33.8,0,0,0,6.86-6.44c5.06-6.38,10.81-11,19.48-11.57,5.38-.36,9.44-3.56,11.74-8.88a116.08,116.08,0,0,1,6.69-12.67c3.43-5.78,9.29-10.12,10.32-17.36a3.57,3.57,0,0,1,1.31-2.09,40.15,40.15,0,0,0,14.89-21.21c14.3-14,25.39-31.3,43-41.93,11-6.63,31.27-3.72,39.73,5.95,6,6.9,4.85,20.36-2.09,29.18-5.67,7.21-12.63,11.24-21.88,10.21-7.46-.82-13.22,1.51-17.93,7.39-7.77,9.69-16.5,18.69-23.52,28.88-5.79,8.41-8.93,18.65-14.64,27.13-6.51,9.66-10.75,20.11-14.56,30.89-.11.31-.3.6-.44.9-1.55,3.21-7.14,5.33-3,10.1,7.69,8.86,12,10,19.68,6.84,5.76-2.36,11.85-5,17.9-5.33,8.81-.46,16.84-3.83,25.27-4.92,13.11-1.7,26.43-1.83,39.68-2.35,7.13-.28,14.33.54,21.43,0,13-1.05,25,.09,37.23,6.13,11.32,5.59,16.39,14.06,20.05,25,5.36,16,7.08,32.75,3.29,48.7-3.21,13.49-5.39,27.85-13.55,39.94-1.61,2.4-1.93,5.63-3.13,8.36-1.83,4.18-3.87,8.27-5.9,12.36-.59,1.19-2,2.21-2.06,3.37-.5,8-7.07,12.09-11.19,17.75-5.76,7.91-11.53,15.81-17.12,23.84-6.21,8.94-12.72,17.38-23,22.2-3.14,1.47-5.39,4.83-8.14,7.22-1.11,1-2.36,2.13-3.71,2.41-15.39,3.17-30.59,5.14-44.36-5.54a22.75,22.75,0,0,1-9.25-17.43c-.21-3.1-1.51-6.15-1.62-9.25-.19-5.89-.58-11.91.43-17.64.86-4.88,6.15-6.11,9.75-2.57a44.92,44.92,0,0,1,7.49,9.88c4.87,8.65,16.44,11.43,24.48,5.45a30.82,30.82,0,0,0,5.46-5.12c7.06-8.62,14.41-17.06,20.82-26.16,4.94-7,8.5-15,12.91-22.34,3.64-6.09,8.12-11.72,11.34-18,4.37-8.53,8.1-17.42,11.71-26.32,2.15-5.31,3.47-10.94,5.26-16.4,6.26-19.06-8.21-37.81-26.23-36.29-1.82.15-3.67,0-5.5,0C925.18,468.7,925.13,468.42,925.09,468.14ZM172.52,771.33c.71,4.93,1.28,10,2.22,15.1.53,2.85,1.75,5.57,5.41,5.52,3.82-.06,7.79-.69,9-4.84,2-6.79,3.33-13.8,5-20.7.89-3.64,1.83-7.27,2.9-10.86.87-2.9,2.33-5.67,2.91-8.61,1-5,1-10.26,2.29-15.19,2.64-10.27,5.72-20.44,8.82-30.59,3.19-10.46,6.7-20.82,9.91-31.28,1-3.16,1.34-6.49,2.05-9.73,1.35-6.14,2.77-12.27,4.13-18.42.68-3,1.41-6.08,1.91-9.16.75-4.58,1.09-9.23,2-13.77,1.69-8.43,3.58-16.82,5.53-25.19,2.23-9.59,7.55-18.31,7.16-28.73-.16-4.27,2.1-8.65,3.33-13,.91-3.19,2.22-6.29,2.88-9.52,3.35-16.39,6.55-32.82,9.82-49.24.17-.81.66-1.55.81-2.36,1.14-6.14,2.3-12.28,3.33-18.44.57-3.42.21-7.14,1.45-10.26,3.23-8.16,7.35-16,5.79-25.26-.18-1.06.43-2.25.64-3.39,1.76-9.45,3.93-18.84,5.14-28.36,1.23-9.69,1.44-19.5,2.28-29.25.18-2.11,1.36-4.13,1.67-6.25.38-2.58.91-5.35.35-7.81-1.38-6.08-8.1-8.41-12.34-3.9-5.66,6-11.55,12.29-15.34,19.5-7.3,13.89-13.37,28.45-19.63,42.87-4.67,10.73-8.85,21.68-13.21,32.54-.43,1.07-.5,2.27-.83,3.38-2.91,9.86-5.82,19.73-8.8,29.57-1.53,5.07-3.91,10-4.6,15.17-.82,6.16-1.09,12.21-5.4,17.24-.78.9-.77,2.5-1.06,3.79-1.16,5.19-1.91,10.5-3.52,15.53a81.92,81.92,0,0,0-3.83,25c0,5.3-2,10.63-3.22,15.91-1,4.5-2.55,8.91-3.41,13.44-.8,4.22-.92,8.57-1.52,12.84-1.13,8-2.78,16-3.5,24-.81,9-.8,18.18-1.21,27.28-.07,1.48-.51,3-.68,4.43-.44,3.79-1,7.58-1.19,11.39-1.09,20-2.09,40-3.14,60.06-.05,1-.45,2-.47,3-.08,4.32-.06,8.64-.11,13,0,3.46,0,6.93-.24,10.38C173.68,762.49,173.06,766.76,172.52,771.33Zm212.72-58.22.81.1c0,1,0,2,0,3,.14,5.65,2.32,7,7.1,4.18,5.16-3.08,9.17-7.49,10.6-13.37,2.9-11.84,5.24-23.83,7.94-35.72,1.32-5.81,3.49-11.48,4.28-17.35,2.13-16,3.9-32,5.41-48a46,46,0,0,0-1.17-13.29c-.35-1.69-2.59-4.08-4.08-4.17-2.1-.12-5.5,1-6.25,2.64-3.65,7.78-7.39,15.68-9.58,23.94s-2.5,17-3.82,25.53c-.43,2.77-1.53,5.42-2.19,8.16-1.42,6-3,11.91-4,17.94-.6,3.4-.1,7-.5,10.45C388.36,689.14,386.76,701.12,385.24,713.11Z"/><path class="cls-1" d="M698.9,887q0,25.47,0,50.93c0,18.31-.27,36.62,0,54.92.17,10.44,1.25,20.87,1.88,31.31a32,32,0,0,1,.12,7c-1.42,8.72-1.57,17.21,2.83,25.29a8.28,8.28,0,0,1,.73,4.4c-1.42,19.9,1.15,39.74.71,59.65-.42,19.12,0,38.3,1,57.41.39,7.4,2.43,14.69,1,22.21a5.1,5.1,0,0,0,.94,3.79c3.77,4.44,2,9,1.59,14-.73,8.68.15,17.58,1.15,26.3.52,4.44,6.21,8,10.64,7.28a6.2,6.2,0,0,0,4.14-3.57,174.69,174.69,0,0,0,4.42-18.3c2.31-12.43,4.19-24.94,6.48-37.37,1.72-9.3,3-18.79,5.9-27.75,4.62-14.37,4.72-30,12.2-43.58,1-1.88.1-4.77.33-7.17.32-3.5.08-7.34,1.48-10.38,3.82-8.27,8.92-16,12.48-24.34,3.43-8,5.12-16.84,8.43-25,3.22-7.91,7.54-15.36,11.33-23,1.16-2.35,2.94-4.74,3.08-7.19.25-4.57,2.62-7.51,5.93-9.87,15.92-11.39,34.47-6.63,40.2,13.38,5.42,18.95,9.25,38.36,13.64,57.6a25.9,25.9,0,0,1,.43,8c-.87,9.45,2.78,17.91,5.09,26.75,1.9,7.3,2,15.06,3.06,22.6.34,2.43.51,5.18,1.77,7.13,3.32,5.19,4.12,10.73,4.13,16.69,0,6.16.53,12.31.94,18.46.09,1.27.32,3,1.16,3.69,4.11,3.6,4,7.91,3.19,12.78-.68,4,3.64,9.11,7.62,9.81s6.47-.9,7.58-4.73c3.19-11,6.48-22,9.53-33.07,2.81-10.24,5.57-20.49,8-30.83,2-8.51,3.21-17.18,5.08-25.71.69-3.18,1.51-6.82,3.54-9.13,4.09-4.64,4.75-10,5.48-15.66.62-4.86,1.06-10.43,3.7-14.2,4.67-6.68,5.45-14.13,7.22-21.51,1.15-4.81,2.86-9.48,4.35-14.2a14.84,14.84,0,0,0,.94-2.3c1.23-10.21,6.77-18.92,9.92-28.45.72-2.19,2-4.18,2.83-6.36,1.49-4.13,2.8-8.33,4.15-12.52a52.92,52.92,0,0,1,1.93-6.15c4-8.53,8.12-17,12.25-25.48.94-1.94,2.25-3.7,3.14-5.65,1.28-2.82,2.32-5.76,3.5-8.63s2.18-5.47,3.46-8.11c.57-1.17,1.86-2,2.42-3.15,3.09-6.5,6.16-13,9-19.59,6.07-13.89,14.25-26.35,25.72-36.3,6-5.19,13.33-6.36,21.17-4.38,7.17,1.81,14,4,19.53,9.32,3.05,2.94,4.87,5.87,4.07,10a24.55,24.55,0,0,0,3.27,18.17c1.6,2.64,1.85,6.24,2.17,9.46.46,4.73.42,9.51.64,14.27,0,1,.47,2,.44,3q-.65,22.38-1.4,44.77c-.07,1.82-.5,3.65-.44,5.46.54,15.43,1.15,30.85,1.73,46.27.32,8.3-.55,16.85,1.22,24.81,1.71,7.69,4.1,15.31,6.11,23,2.48,9.43,8.19,18.1,13,26.81,3.48,6.28,9.51,7,14.47,1.66a35.13,35.13,0,0,0,6.75-10.87c3.8-9.54,7.09-19.29,10.43-29,1.56-4.54,2.65-9.25,4.11-13.83,1.35-4.26,2.9-8.45,4.39-12.67.44-1.25,1.41-2.5,1.35-3.72-.41-8.47,4-15.59,6-23.34,3-11.22,3.76-23,9.52-33.46a8.14,8.14,0,0,0,.57-5.38c-1.84-7.4,1.43-13.57,3.88-20.15a50.66,50.66,0,0,0,3.09-15.45,55.73,55.73,0,0,1,3.66-18.39c1.75-4.54.91-10.08,1.26-15.16.61-8.9,1.25-17.8,1.87-26.69a81.34,81.34,0,0,0,.52-9.34,28.53,28.53,0,0,1,2.57-14.41c2-4.19,2.23-9.65,1.79-14.42s-6-5.81-9.44-1.81-6.77,8.63-10,13.09c-5.58,7.8-13.41,12.87-21.34,17.76-6.34,3.9-13,1.61-16.15-5.07a32.7,32.7,0,0,0-3.66-5.91c-4.81-6.2-4.27-12.29,1.7-17.51,5.35-4.69,11.13-9,15.93-14.15,8.23-8.88,15.77-18.39,23.79-27.47a58.14,58.14,0,0,1,7.93-6.8c11.13-8.7,18.46-18.84,17.88-34.18-.64-17.09.34-34.25.93-51.36.25-7.28,1.81-14.52,1.83-21.78,0-8.8-.38-17.28,1.24-26.3,1.95-10.86,3.15-22.67-.37-34.14-1-3.27.58-8,2.35-11.32a54.33,54.33,0,0,1,9.33-12.26c4.57-4.66,19.57-4,24.82.67,7.63,6.76,12.7,14.28,11.8,25.48-1.17,14.42-.13,29-1.36,43.42-1.27,14.9-4.22,29.66-6.22,44.51a49.66,49.66,0,0,0-.3,11.93c.48,4.25,3.12,5.08,6,2a96.55,96.55,0,0,1,26.75-20.6,25.39,25.39,0,0,0,4.73-3.66c10.08-8.74,20.71-16.38,33.67-20.6,6.56-2.14,12.48-6.16,18.85-8.93,5.86-2.55,10.06-1.12,13.46,3.84,2.41,3.52,1.84,7.73-2.58,12.06-9.08,8.9-16.44,19.37-27.72,26.28-7.8,4.78-13.82,12.41-20.89,18.46-13.12,11.22-26.57,22-39.55,33.4-4.58,4-8.3,9-12.15,13.77a7.81,7.81,0,0,0-1.66,5.12c1.16,12.23-3.09,23.69-4.7,35.52-.38,2.77,0,5.63,0,8.46,0,3.63.09,7.28-.16,10.91-.94,14.06-2.41,28.09,1.71,42a15.08,15.08,0,0,1,0,8.75c-3,8.37-1.94,16.65-1,25.15,1.06,10,4.13,20,1.42,30.15a5.42,5.42,0,0,0,0,3.45c5.39,10.89,1.16,22.77,3.6,34,.25,1.13,0,2.45.43,3.45,4.65,10,5.65,20.67,6.59,31.47.31,3.55,2.9,6.91,4.43,10.36,2.82,6.35,6.19,12.53,8.16,19.13.84,2.83-.89,6.68-2.14,9.78-1,2.56-3,4.76-4.7,7-4.16,5.65-8,6.42-14.17,3-1-.56-2.11-1.56-3.08-1.47-9.25.85-13.09-5.92-16.27-12.39-3.33-6.76-5-14.33-7.88-21.33-2.46-5.94-5-12-8.69-17.23-3.83-5.49-9.36-4-11.36,2.53-.24.79-.28,1.64-.51,2.44q-2.79,9.78-5.62,19.55c-.18.64-.47,1.25-.62,1.9-2.57,10.79-5.06,21.61-7.72,32.38-.67,2.71-2,5.24-2.85,7.91-2.56,8-5,16.15-7.56,24.19a94.67,94.67,0,0,1-20.53,35c-1.23,1.35-3.37,1.89-5.14,2.68-2.4,1.08-5.2,1.58-7.2,3.15-3.85,3-7.81,3.35-12.23,2.09-5.13-1.45-10.33-2.66-15.37-4.36a22.22,22.22,0,0,1-7.36-4c-5.65-4.88-11-10.08-16.44-15.2-4.25-4-8.71-4.07-10.93,1.3-3.52,8.51-5.93,17.53-8.21,26.49-3,11.85-6.93,23.13-15.29,32.46-3.43,3.82-7.52,5.61-12.48,6.56-21.74,4.15-35.94-8.88-41.2-29.61-1.83-7.19-1.94-14.79-3-22.18-.8-5.38-2.55-10.68-2.79-16.06-.47-10.27-.31-20.58-.12-30.86.06-3.77,1.22-7.51,1.36-11.28.09-2.08-.25-5.25-1.55-6-1.69-1-5.42-1.17-6.7,0a29.78,29.78,0,0,0-7.41,10,117,117,0,0,0-5.51,18.54c-1.72,7.44-2.81,15-4.31,22.53-.49,2.41-.8,5.25-2.27,7-3.55,4.23-3.4,9-4,14-.53,4.58-2.83,8.93-4.13,13.44-1,3.63-1.76,7.34-2.6,11-.94,4.17-1.92,8.34-2.76,12.53-1.13,5.68-2,11.41-3.26,17.07-1.35,6.26-2.9,12.49-4.47,18.7-.6,2.41-1.8,4.7-2.21,7.13q-3.13,18.7-5.95,37.45a55.87,55.87,0,0,0-.34,9c.18,12.62-7.68,22.07-20,23.52-14.9,1.75-25.88-3.34-29.44-20.4a6.39,6.39,0,0,0-.51-1.93c-7.21-12.17-8.33-26.17-11.28-39.49-4.65-21-11.81-41.67-10.86-63.71a23.85,23.85,0,0,0-2.4-11.58c-4.57-8.74-4.26-17.89-4.25-27.27s-.2-19.1-4-28.25a28.34,28.34,0,0,1-2.06-12.18,109.9,109.9,0,0,0-5.8-41.27c-1.24-3.73-2.27-7.34-6.89-8.26s-7.52,1.44-9.61,4.79c-2.48,4-4.35,8.39-6.49,12.61-1.27,2.49-2.51,5-3.83,7.47a23.6,23.6,0,0,0-1.64,2.48q-8.18,21.77-16.25,43.56a75.46,75.46,0,0,0-3,8c-1.38,5.58-2.31,11.27-3.69,16.85-1,4.14-2.48,8.17-3.7,12.26-1.11,3.74-2.65,7.45-3.14,11.28-.77,6.09-.79,12.27-1.19,18.41a7,7,0,0,1-.74,3.38c-7.24,10.53-5,22.74-6.32,34.32-.43,3.78-1.27,7.52-2,11.27-1.27,7-3.66,14-3.58,21.06.14,12.51-2.64,24.44-4.82,36.55-1.14,6.36-1.16,12.91-2,19.32-2.18,16.15-4.59,32.27-6.8,48.41a70.86,70.86,0,0,0-.13,7.44c-.23,7.29-.21,14.61-.81,21.88-1.06,12.9-2.5,25.77-3.77,38.66-.05.49,0,1,0,1.5-.4,13.39-6.1,20.54-19,23.72a5.44,5.44,0,0,1-2.91-.13c-14.69-4.84-22.94-16.25-23.1-32-.07-7.12,0-14.24,0-21.37a2.15,2.15,0,0,0-.07-1c-4.12-6.82-3.28-13.8-1-21,.52-1.68-.5-3.89-1-5.82a104.43,104.43,0,0,0-3-11.53c-.78-2.15-2.28-5.13-4-5.56a8.29,8.29,0,0,0-7,2.17c-2.14,2.54-3.38,6.06-4.3,9.35-2.5,9-4.74,18-6.87,27.06-.83,3.54-1,7.23-1.67,10.81-.52,2.72-1.38,5.38-2.14,8.05q-1.94,6.88-4,13.75c-2.92,10-4.77,20.34-10.69,29.21-.64,1-1.67,2-1.71,3-.42,9.92-7.11,17.41-10.1,26.35-6.64,19.86-19.45,35.57-36.84,46.59-15.41,9.76-32.46,14.4-50.51,5.51-7.11-3.5-15.27-5.48-21.44-10.15A100.84,100.84,0,0,1,490.73,1510c-5.85-8-10.11-17.14-14.75-26a17.53,17.53,0,0,1-1.9-8.11c.17-10.06-.6-19.9-3.76-29.58-1-3-.16-6.52-.23-9.81-.06-2.42-.18-4.85-.37-7.27-.06-.81-.6-1.6-.6-2.4-.11-9.44-.62-18.89-.12-28.3,1.11-20.91,6.45-41.49,5.16-62.62a11.84,11.84,0,0,1,.65-4.92c6.44-16.58,7.22-34.4,11.38-51.48,1.64-6.74,1.71-14,4.35-20.33,3.79-9,5-18.47,7.52-27.71a154.23,154.23,0,0,1,6-17.29c1.09-2.72,3.47-4.91,4.56-7.63,2.66-6.62,4.83-13.44,7.35-20.12,3.57-9.44,7.16-18.89,11-28.24,2.81-6.92,5.68-13.84,9.05-20.49,6.26-12.34,10.21-25.84,18.76-37.08,3.08-4,4.74-9.15,7.57-13.43,5.64-8.53,13.66-14.74,22.54-19.3,11.73-6,30-4.08,36.75,11.09,3.54,8,1.46,22-10.61,28.31-8.18,4.27-16,8.89-22.32,15.64a17.88,17.88,0,0,0-3.36,4.87c-7.25,16.14-14.6,32.25-21.49,48.55-4.79,11.32-8.88,22.93-13.33,34.4-1.08,2.78-2.64,5.41-3.43,8.25-1.46,5.22-2.29,10.62-3.81,15.81a66.17,66.17,0,0,1-4.06,9.33c-.48,1-1.83,1.94-1.82,2.9.18,11.19-8,20.2-7.77,31.65.1,6-3.7,11.91-5.05,18-1.88,8.41-3.12,17-4.6,25.47-.25,1.47,0,3.1-.51,4.45-5.49,14.06-3.23,28.91-4.59,43.39-1.1,11.7-2.9,23.34-4.2,35a16.71,16.71,0,0,0,.61,7.26c2,5.59,2.35,10.86,0,16.51-.91,2.16-.3,5.1.09,7.61.74,4.7,2.19,9.32,2.67,14,.51,5.12.17,10.32.35,15.48.49,14.61,9.12,25.48,18.08,35.5a26.19,26.19,0,0,0,26.84,8.23,17.41,17.41,0,0,0,6.23-3c4.73-3.66,9.92-7.07,13.61-11.64,4.52-5.6,7.84-12.2,11.38-18.53,1.52-2.72,2.09-6,3.46-8.8,1.62-3.36,3.66-6.51,5.46-9.79a30.91,30.91,0,0,0,3-6.13c2.57-9.21,3.59-18.62,9.13-27.21,3.47-5.36,3.12-13.18,4.53-19.89.33-1.58.87-3.12,1.31-4.68,1.41-5,2.84-10.08,4.22-15.13.9-3.28,1.6-6.61,2.61-9.86,1.5-4.85,3.24-9.64,4.81-14.48,1.46-4.53,3-9.06,4.21-13.66,1.1-4.13,2.57-8.39,2.5-12.56-.15-9.19,2.16-17.7,4.7-26.38,1.71-5.82,2.16-12.09,2.48-18.2a47.76,47.76,0,0,1,4.36-18.19c2.33-5,3-11.15,3-16.79,0-9.62-1.56-19.09,3.91-28.14,2.17-3.59,2.61-8.58,2.74-13,.57-18.1.56-36.23,1.11-54.34.19-6.11,1.66-12.18,2.07-18.3.81-12.1,2.1-24.24,1.71-36.32-.72-22.77-2.61-45.5-3.75-68.26-.45-8.94-.11-17.91-.27-26.87-.31-16.1-.72-32.2-1.08-48.3q-.37-16.43-.73-32.84c-.29-13.15-.75-26.29-.8-39.45,0-9.14.22-18.31.9-27.43.58-7.84,6.89-11.34,12.86-14.74,14.21-8.08,31.21,5.49,30.07,19.15-.57,6.94-.1,14-.1,21Zm301,201.28c-2,7.74.87,11.34,4.12,14.48,1.54,1.49,4.59,3.14,6,2.53,1.71-.73,3.12-3.7,3.45-5.88,1.27-8.31,2.22-16.68,2.94-25.05a98.14,98.14,0,0,0,.12-14.14c-.58-10.09-1.31-20.18-2.25-30.24a94.35,94.35,0,0,0-2.4-13.42c-.27-1.13-2-2.66-3-2.62s-2.1,1.74-2.78,2.93a9.74,9.74,0,0,0-.79,3.37c-1.83,12.46-4.24,24.87-5.25,37.4C999.16,1068.65,999.86,1079.79,999.86,1088.28Z"/><path class="cls-1" d="M759.69,1825.64c-11.12-.55-18.8-7.89-19.67-19-.7-9,1.72-16.71,8-23.33,4-4.22,7.63-8.79,11.43-13.19a10.56,10.56,0,0,1,1.73-1.8c12.76-8.93,21.25-21.59,30.15-34,3.75-5.22,8.81-9.47,13.14-14.28,2.77-3.08,5.27-6.4,7.95-9.56a36.12,36.12,0,0,1,3.77-4c13.45-11.55,26.89-23.11,40.43-34.55,5.55-4.69,11.36-9.07,17-13.64,4-3.22,7.85-6.57,11.86-9.75,6.86-5.43,13.64-11,20.74-16.08,4.14-3,9-4.9,13.23-7.75,4.67-3.14,8.86-7,13.5-10.16,9-6.18,18.18-12.11,27.3-18.13a4.66,4.66,0,0,1,1.32-.7c12.63-3.31,22-12.41,33.06-18.5,9.44-5.19,19.11-10,28.5-15.23,7.07-4,13.86-8.4,20.79-12.61a8.8,8.8,0,0,1,3.1-1.56c11.47-1.37,19-10.48,29-14.62,11.94-5,22.09-13.31,35-16.66,9.3-2.41,17.83-7.76,26.78-11.61,6.53-2.8,13.2-5.29,19.81-7.89.77-.31,1.83-.22,2.37-.73,8.46-8,20.61-7.74,30.08-13.56,5.23-3.21,6.39-6.72,1.56-10.41a21.82,21.82,0,0,0-11.24-4.23c-7-.46-13.68-.34-19.82-5.07-2.66-2.05-7.37-1.27-11-2.22a52.62,52.62,0,0,1-8.44-3.36,37.47,37.47,0,0,1-7.23-3.89c-2.75-2.11-6.27-4.28-7.43-7.22-5.3-13.42,4.37-27.36,17.36-28,8.48-.42,16.49-.27,24.15,4.18,2.85,1.65,6.62,1.92,10,2.38,6.09.82,12.23,1.28,18.34,2a7.53,7.53,0,0,1,3.37.84c9.17,6.5,19.87,3.92,29.91,5.18,2.14.27,4.58-.34,6.43.48,12,5.28,25.07,4.64,37.59,7a5.94,5.94,0,0,1,1.93.46c8.51,5.28,17.94,5.58,27.51,5.21a4.66,4.66,0,0,1,2,.26c14.9,6.5,30.29,12.23,39.76,26.87,2.64,4.09,3.3,7.81,1.69,12.64a31.15,31.15,0,0,1-16.84,18.85c-19.62,9.19-34.88,24.09-51.39,37.39-7.6,6.12-15.51,11.85-23.26,17.78s-15.17,12.43-23.35,17.74c-8.87,5.76-18.35,10.59-27.74,15.48-4.31,2.25-7.74-.44-10.48-3.57-3.09-3.53-3.59-8-1-11.58a164.12,164.12,0,0,1,15-18.33c8.39-8.74,17-17.26,26.11-25.29,8.06-7.15,16.88-13.42,25.24-20.23,3.22-2.62,6.11-5.63,9.14-8.49,2.88-2.71,2-5.19-.94-6.87a11.44,11.44,0,0,0-6.11-1.64c-7.69.51-15.77-.64-22.57,4.49a2.89,2.89,0,0,1-1.85.68c-12.45-2-21.34,8.68-33.06,9.27a6.86,6.86,0,0,0-2.75,1.15c-5.17,2.91-10.22,5.39-16.4,6.48s-11.63,5.41-17.54,8c-8,3.55-16.2,6.61-24.11,10.31-8.61,4-17,8.51-25.46,12.81-.73.37-1.41,1.22-2.12,1.23-7.8.12-13.6,5-20,8.3-14.34,7.48-28.73,14.86-43.08,22.33-7.72,4-15.51,7.9-23,12.27-10.91,6.33-21.58,13.08-32.4,19.56-2.27,1.36-4.78,2.33-7.18,3.47-1.35.64-2.92,1-4,2-14.79,12.29-33.39,18.56-48.13,31.17-10.66,9.13-23.25,16-34.47,24.51-7.77,5.91-14.67,13-21.94,19.5-1,.89-1.78,2.19-2.92,2.7-13.5,6-21.51,18.4-32.23,27.62-7.56,6.5-14.71,13.46-22,20.23-.86.79-2,1.53-2.38,2.54-4.5,11.48-14.59,18.82-21.19,28.75-2.28,3.43-5.77,6-8.18,9.39-3.13,4.36-5.85,9-8.54,13.7-4.75,8.21-7.34,17.86-15.17,24C765.94,1825.14,762.5,1825,759.69,1825.64Z"/><path class="cls-1" d="M1386,943.57c0-12.4.35-24.22-.11-36-.33-8.37-1.76-16.7-2.7-25,0-.33-.22-.69-.14-1,2.92-10.07-1.62-19.63-1.91-29.41-.38-13.38.94-26.8,1.23-40.22.08-3.76-1.2-7.54-1.34-11.32-.62-16.7-1.18-33.4-1.46-50.1a43.39,43.39,0,0,1,1.66-12.3c1.9-6.76,2.71-13.34,0-20.06-1.49-3.8-.73-7.22,1-11,1.36-2.94,1.18-6.68,1.33-10.08.28-6.28.25-12.57.42-18.86.44-16.21.84-32.42,1.41-48.63.27-7.63.93-15.24,1.32-22.87.25-5,.22-9.92.55-14.86.37-5.59.81-11.18,1.55-16.72,1.21-9.05,3.16-18,3.94-27.11,1.12-12.91,1.45-25.89,2.15-38.83a9.09,9.09,0,0,1,.57-2.94c3.92-9.25,4-19,4.65-28.86.4-6,2.4-12,4.61-17.6a29.07,29.07,0,0,0,1.57-17.1c-1.83-8.71.5-15.74,8-20.91,5.82-4,12.09-4.21,17.91-.9a69.13,69.13,0,0,1,15.45,11.54c1.6,1.65,1.4,8.08-.22,9.28-5.57,4.11-6,9.65-6.49,15.42-.52,6.13-.4,12.34-1.33,18.39-.77,5-3.55,9.79-3.9,14.79-1.06,14.72-1.32,29.5-2,44.26a25.35,25.35,0,0,1-.9,6.87c-4.4,13.28-5.75,26.94-5.91,40.84-.21,18.14-.63,36.28-1.15,54.42-.1,3.45-1.29,6.86-1.7,10.32-.51,4.26-.9,8.55-1,12.84-.17,5.12.4,10.28-.07,15.36-1.06,11.22-2.57,22.4-3.88,33.6a14.9,14.9,0,0,0-.13,2.49c.61,13.05,1.53,26.1,1.79,39.16.18,9.58-.63,19.19-.72,28.79-.05,5.14.82,10.3.68,15.43-.29,11.47-1.22,22.93-1.4,34.4-.15,10,.71,20,.49,29.92-.38,17.56-.86,35.14-2,52.66-.75,11.06-2.95,22-4.27,33-.51,4.28.06,8.7-.63,12.94-1,6.33-2.71,12.55-4.17,18.81a150.52,150.52,0,0,1-3.76,14.91c-.81,2.38-3,6-4.63,6-2.31,0-5.16-2.27-6.91-4.31a13.59,13.59,0,0,1-2.54-6.9C1389.16,971.8,1387.6,957.44,1386,943.57Z"/><path class="cls-1" d="M767.2,89.92a14.79,14.79,0,0,1,1.49,0c4.36.49,11.07-.55,12.61,1.79,4.11,6.27,8.07,13.06,7.13,21.71-1.26,11.61-1.1,23.36-1.55,35.06a11.2,11.2,0,0,1-.27,3.45c-5,12.93-6.26,26.57-7.84,40.17-1.11,9.53-2.59,19-4.3,28.47s-8.13,15.15-16.49,18.51c-2.12.85-5.8-.5-8-2-3.73-2.41-6.72-5.94-10.32-8.6-4.27-3.15-5.7-7.28-4.92-12.22,1.46-9.34,3.44-18.61,4.67-28,1.49-11.34,2.42-22.75,3.59-34.13a8.16,8.16,0,0,1,.39-2.94c6.94-12.41,3.13-25.63,2.89-38.53-.13-7-1.3-14.19,4.9-19.45a13.37,13.37,0,0,1,6.1-3.14c3.24-.53,6.63-.14,10-.14Z"/><path class="cls-1" d="M1422.77,1107c10.54-.21,19.7,9,20,20a74.5,74.5,0,0,1-1.28,17.35,13.06,13.06,0,0,1-5.8,8c-4.22,2.26-9.6,4.72-13.89,3.92a31.85,31.85,0,0,1-20.28-12.69c-4.63-6.47-3-21.47,2.58-27.1C1409.46,1111,1415.17,1106.17,1422.77,1107Z"/></svg>