<svg id="Layer_1" data-name="Layer 1" xmlns="http://www.w3.org/2000/svg" viewBox="0 0 1758 1136"><defs><style>.cls-1{fill:#ea1f54;}</style></defs><title>XOXOMarie</title><path class="cls-1" d="M649.41,949c1.88,9.87-1.4,17.7-9.1,23.14-10.08,7.13-24.68.61-25.74-11.68-.49-5.75.41-11.71,1.37-17.47,2-11.77,4.39-23.46,6.61-35.18,2.94-15.48,5.92-31,8.77-46.46.66-3.58.67-7.27,1.35-10.84,1.43-7.52,3.13-15,4.68-22.48,1.61-7.73,3-15.52,4.82-23.19,1.23-5.08,3.12-10,4.75-15a23,23,0,0,0,1.17-2.79c1.86-10.11,3.66-20.22,5.48-30.33.32-1.8.61-3.61,1-5.38q3.66-15,7.38-29.93c3.8-15.34,7.87-30.63,11.37-46,3.4-15,6.38-30.06,9.24-45.16,2.45-12.9,4.55-25.86,6.59-38.83.68-4.29,2.16-9.21-3.27-11.78-4.67-2.22-9.2.19-13.63,4.95-16.82,18.07-32.11,37.76-53.48,51.11-3.25,2-6,4.88-9.07,7.16-11.41,8.37-22.89,16.65-34.33,25-3.61,2.63-7.18,5.3-10.78,8a26.13,26.13,0,0,1-4,2.82c-23.51,11.22-45.8,24.9-70.6,33.58-25.74,9-51.87,14.07-79.21,13.3-12.73-.35-22.21-6-29.48-15.65-1.63-2.17-1.78-6.79-.64-9.42,2.28-5.26,9.71-8.35,15-6.89a25.11,25.11,0,0,1,8,4.09c8.7,6.49,17.91,8.75,28.65,5.64,6.17-1.79,12.95-1.41,19.14-3.15,13-3.69,26.08-7.55,38.7-12.43a235.28,235.28,0,0,0,33-15.55c16.44-9.5,32.46-19.76,48.26-30.29a292.83,292.83,0,0,0,31.13-23.28c21.88-19.27,43.4-39,61.77-61.82,6.93-8.62,13.55-17.5,20.23-26.33,6.19-8.18,13-10.47,21.12-7,10,4.31,13.44,10.76,11.58,21.31a37.09,37.09,0,0,0-.88,9.06c1.37,18.62-2.18,36.83-4.8,55.06-3.27,22.68-7.35,45.25-11.09,67.86a8.84,8.84,0,0,1-.4,1.78c-9.93,25.84-11.77,53.61-19.11,80.06-1.63,5.86-3.58,11.66-4.9,17.59-1.07,4.86-1.27,10,4,12.91,3.06,1.68,8.36-3.41,10.87-8.89,5.63-12.31,11.64-24.45,17.48-36.67,5.32-11.15,10.25-22.5,16-33.41,8.77-16.63,18-33,27.22-49.41,6.93-12.36,14.12-24.57,21.17-36.86a941.8,941.8,0,0,1,58.06-89.57c4.83-6.57,16.13-10.49,22.86-8,6.45,2.39,11.44,11.18,11.41,19.33-.08,25.15.1,50.3,0,75.45-.06,12.35-.82,24.69-.84,37,0,12.74.61,25.48.7,38.22,0,4.43-1.26,8.91-.9,13.28.27,3.25,2.21,9,3.44,9,3.78,0,8.5-1.22,11.15-3.75,3.53-3.39,5.57-8.4,8.07-12.81q9-15.85,17.74-31.8c6.63-12,12.82-24.32,19.83-36.12,10.94-18.44,22.31-36.63,33.68-54.82,12.56-20.08,25.15-40.16,38.08-60,7.6-11.66,15.47-23.2,24-34.22,9.52-12.34,19.72-24.16,29.91-36,8.62-10,17.5-19.73,26.54-29.32,5.16-5.48,10.23-6.17,16.56-3.23,6.51,3,10.82,9,10,15.29-2.28,17.5-3.52,35.31-7.8,52.35-6.71,26.73-15.17,53.06-23.64,79.31-9.34,28.94-19.41,57.64-29.39,86.37-6.84,19.67-14.32,39.11-21,58.82-6,17.47-11.6,35.06-16.71,52.79-5.65,19.61-11.14,39.31-15.6,59.21-5.51,24.59-9.16,49.67-6.35,74.82,1.18,10.53.47,22.59,9.76,31.11,5,4.56,10.21,5.54,16,1.83,4.09-2.63,7.72-6.07,12-8.28,2.28-1.17,5.51-.51,8.31-.67,0,2.65.88,5.73-.16,7.87-4.63,9.54-10.52,17.84-19.7,24.15-17.3,11.89-23.11,6-34.37-3.41-4.29-3.57-7.6-9.11-9.69-14.41-8.17-20.74-10.23-42.42-8.46-64.55,1.06-13.34,1.47-26.74,3.06-40,1-8.57,3.39-17,5.64-25.39,2.36-8.73,5.61-17.21,7.93-26,7.48-28.26,17.5-55.65,27.88-82.95,10.88-28.63,21.71-57.29,32.07-86.11,6.78-18.88,12.62-38.11,19-57.13,1.86-5.57,4.5-10.88,6.2-16.49,6.22-20.46,12.19-41,18.29-61.5,1.17-3.95,1.69-7.83-2.43-10.29s-8.4-1.79-11.38,2.15c-10.6,14.06-21.34,28-31.47,42.44q-15.74,22.37-30.38,45.49c-9,14.19-17.24,28.87-26,43.25C964.17,614,953.18,631,942.93,648.5,930.32,670,918.13,691.8,906,713.62c-11,19.86-21.65,39.92-32.41,59.92a50.35,50.35,0,0,0-2.36,5.61c-3.91,10-10.31,13.58-19.94,11.13-10.31-2.63-14.65-9.41-14.12-19.6,1.55-30,2.6-60,3.92-89.95.57-12.89,1.42-25.78,2-38.68.23-5.45-.22-10.92-.05-16.37.48-15.18,1.41-30.35,1.47-45.53,0-3-2.57-7.95-4.85-8.54-3-.78-8,.87-10.15,3.26-4.67,5.23-8.29,11.46-12,17.5-13.29,21.77-26.68,43.49-39.52,65.53-7.11,12.2-13.08,25.05-19.78,37.48-4.51,8.37-9.78,16.33-14,24.82C736.85,734.83,730,749.71,723,764.5c-5.37,11.34-10.94,22.58-16,34.06-12.59,28.55-25.49,57-37.17,85.91-6,14.77-9.51,30.51-14.24,45.79C653.67,936.54,651.49,942.75,649.41,949Z"/><path class="cls-1" d="M1240.41,606c-1.08,3.37-2.41,7.55-3.77,11.71-2.32,7.09-5.19,14.06-6.89,21.3a295.92,295.92,0,0,0-6,32.15c-1.94,16.06-3.38,32.21-4.15,48.36a28.81,28.81,0,0,0,3.81,15.41c6.06,10,16,9.86,23.35.66,5.44-6.82,11.61-13.09,16.66-20.18,5.26-7.39,10.61-15,14-23.34,5.27-12.79,12.76-24.59,14.15-39.22,1.16-12.21,6.07-24.07,9.33-36.08a16.49,16.49,0,0,0,.51-1.75c2.15-15.36,4.55-30.68,6.27-46.09.69-6.28,1.65-12,6.64-16.38,3.85-3.4,8.16-5.08,12.8-2.44,4.79,2.72,8.34,6.67,7.24,12.88-1.68,9.58-3.55,19.14-5.17,28.73-.67,4-1.51,8.07-1.19,12,.48,5.93,5.79,8.2,10.62,4.7,2.4-1.74,4.22-4.34,6.13-6.68,7.27-8.89,14.46-17.86,21.72-26.76a78.33,78.33,0,0,1,6.41-7.31c6.7-6.4,13.2-13.08,20.43-18.83,8.86-7.05,18.27-13.43,27.67-19.77,5.57-3.76,11.56-5,17.48-.23,7.25,5.81,9.48,12.5,7.8,20.24-2.36,10.88-3.59,22-6.18,32.83-6.57,27.4-13.17,54.8-20.71,81.93-3.52,12.69-5.78,25.23-5.24,38.35.24,5.91-3.79,9.89-8.52,11.41-2.87.93-7.33-1-10.3-2.88-5.6-3.53-7.4-8.8-6.44-15.75,4.84-35.26,13.71-69.48,25.32-103.06,2.51-7.24,4.67-14.61,6.76-22,1.15-4.06,1.3-8.21-2.83-10.94-4.45-2.93-8.77-1.66-12.29,1.56-8.25,7.52-16.19,15.39-24.34,23-19.43,18.15-33,40.68-45.47,63.62-6.41,11.75-9.63,25.3-13.79,38.2-4,12.27-7.36,24.71-10.81,37.14-2.62,9.48-4.87,19.07-7.41,28.58-.77,2.91-1.36,6.15-3.07,8.48-2.94,4-6.23,8.77-12.26,7.35-6.58-1.56-11.91-5.26-14.12-12.1-3.48-10.83-7.51-11.9-15.14-3.12a39.48,39.48,0,0,1-25.11,13.66c-12.23,1.63-21.25-5-28.56-14.11-2.54-3.17-4.64-6.68-7.17-9.85-3.61-4.51-7.89-5-11-.15-5.49,8.48-9.9,17.65-15,26.42-10.25,17.77-20.88,35.38-35.54,49.91-5.22,5.18-11.82,9.29-18.41,12.69-9.14,4.72-24.18-2.5-26.75-12.63-2-7.81-1.34-15.91-1.47-24-.23-15,5.91-28.09,8.4-42.16,1.75-9.9,4.85-19.61,8-29.18,4.26-12.85,9-25.57,13.85-38.21,8.82-22.87,18.49-45.25,31.44-66.29,8.79-14.28,18.34-27.72,30.43-39.11,8.41-7.93,18-14.68,30.76-13.81,11.23.77,18.48,6.78,21.26,17.59,1,3.72,2.58,7.27,3.52,11S1239.52,601,1240.41,606Zm-117.8,192.77c1.23-.9,4.24-2.29,6.12-4.61,3.82-4.71,7.08-9.88,10.49-14.92,8.36-12.37,17.72-24.23,24.77-37.32,9.59-17.81,17.69-36.45,25.78-55,2.19-5,1.64-11.15,3-16.59,2.67-10.29,5.92-20.43,8.82-30.66,2.2-7.74,5.44-15.43,6-23.31a35.91,35.91,0,0,1,8.19-21c2.82-3.48,4.67-7.72.74-11.48s-8.75-2.55-12,.86c-7.81,8.16-16.28,16.07-22.32,25.47a483.47,483.47,0,0,0-27.3,48.81c-6.74,13.78-11.15,28.67-17.4,42.71-12.38,27.84-17.29,57.68-24.26,87C1111.89,794.52,1115.13,798.63,1122.61,798.76Z"/><path class="cls-1" d="M76.58,718.28c2.91-10.73,5.47-22.4,9.3-33.65,3.12-9.19,7.57-18,11.75-26.75,4.77-10.07,9.7-20.07,14.89-29.93,8.45-16.07,17.25-32,25.75-48,9.3-17.54,18.75-35,27.46-52.83,3.75-7.68,3-15.94,0-24.29-4.31-12.18-7.59-24.73-11.25-37.15-1-3.29-1.58-6.68-2.61-9.95-6-18.92-11.67-37.92-18.15-56.66-2.83-8.18-7.2-15.83-11-23.66-3.9-8-1.92-13.37,6.49-17,6.82-2.94,14.16.38,16.8,7.45,5.66,15.16,12,30.09,16.95,45.47,6.76,21.12,12.54,42.56,18.58,63.9,1.37,4.83,4.31,6.41,8.45,3.46a14.6,14.6,0,0,0,4.57-5.47c4.91-10.46,9.23-21.21,14.38-31.55,6.75-13.55,14.32-26.69,21.1-40.23s13-27.39,19.61-41.06c2.73-5.66,5.81-11.15,8.6-16.78,7.95-16.1,15.9-32.21,23.71-48.38,4.56-9.43,8.83-19,13.27-28.5,2.46-5.25,8.11-7.32,14.56-5.43,5,1.47,7.74,5.58,5.92,11.52-2,6.49-5.3,12.58-8.23,18.76-4.42,9.32-9,18.58-13.51,27.84-6.16,12.56-12.48,25-18.53,37.66-7.09,14.79-14,29.69-20.93,44.54-3.71,7.89-7.37,15.8-11.12,23.67-4.87,10.23-9.6,20.53-14.74,30.63-9.11,17.89-18.52,35.61-27.72,53.46-3,5.86-3,11.78-1.12,18.26,6,20.38,11.31,40.94,17,61.39,2.79,10,6,19.83,8.82,29.77,2.08,7.18,4.14,14.38,5.85,21.66,2.35,10,4.3,20.16,6.53,30.22,2.09,9.47,4.3,18.92,6.49,28.37,3.11,13.44,6.28,26.86,9.34,40.31.44,2,1.14,4.28.49,6-1.22,3.21-2.69,7.57-5.25,8.67s-7.11-.36-9.89-2.12c-4.7-3-7.29-7.62-8.55-13.43-1.7-7.86-4.81-15.41-7-23.18-3.26-11.43-6.56-22.86-9.29-34.42-4.76-20.13-8.94-40.4-13.71-60.54-1.29-5.47-4.16-10.56-5.69-16-3.71-13.22-6.93-26.59-10.72-39.79-.62-2.15-2.88-4.75-4.88-5.29-1.58-.43-4.24,1.67-5.86,3.22a19.93,19.93,0,0,0-3.52,5.66c-10.74,22-21.36,44.15-32.14,66.18-8.64,17.65-18,35-26,52.9-7.23,16.21-12.94,33.08-19.54,49.58-1,2.42-3.16,4.34-4.78,6.49-2.21-1.78-5.6-3.16-6.39-5.44C79.11,732,78.22,725.73,76.58,718.28Z"/><path class="cls-1" d="M1452.93,644.59c3-12.32,4.81-25.11,9.33-36.85,6.89-17.9,13.75-36.31,24.09-52.25,13.78-21.24,26.19-43.83,46.06-60.76,10.75-9.16,19.71-20.46,30.59-29.45,10.57-8.73,23.94-10.85,37.36-9.2,8.8,1.08,14.21,8.6,15,17.53,1,11.35-2.67,21.8-6.9,31.82a246,246,0,0,1-49.33,74.65c-12.57,13.1-28.93,22.6-43.86,33.33-2.56,1.84-6.48,2.31-9.81,2.45a32.79,32.79,0,0,0-21.82,9.53,14,14,0,0,0-3.58,8c-1,8.66-2.14,17.44-1.66,26.08.26,4.77,2.46,10.68,5.86,13.81,10.81,10,23.49,13.81,38.13,8.07,6.53-2.56,13.44-4.18,20.25-6,14.57-3.83,25.67-13.61,37.06-22.41,13.25-10.24,25.28-22.06,37.91-33.11q14.4-12.63,29-25c1.39-1.17,3.5-1.49,5.27-2.2-.08,2.07.5,4.47-.35,6.16a241.75,241.75,0,0,1-31,46.45c-14.63,17.55-32.5,31.51-52,42.66A124.38,124.38,0,0,1,1506,704.47c-15.57,0-27.64-5.07-38.65-14.27-7.76-6.47-11.22-15.7-11.91-25.84-.43-6.47-1-12.93-1.47-19.4ZM1588.14,491.3c-1.63-2.77-2.6-6.67-4.87-7.68s-6.35,0-9,1.32c-3,1.51-5.4,4.27-7.78,6.74-9.3,9.64-18.7,19.2-27.67,29.14-11.56,12.79-22.21,26.29-30,41.84a130.52,130.52,0,0,1-7.37,12.56c-3.23,5-3.23,9.84.35,13.28s8.19,3.72,13-.78c12.11-11.42,24.06-23,35.66-34.93a99.93,99.93,0,0,0,12.11-16c7.1-11.1,13.86-22.42,20.52-33.79C1585.06,499.62,1586.26,495.72,1588.14,491.3Z"/><path class="cls-1" d="M413.27,541.07c2.45-6.83,4.07-13,6.76-18.57,6-12.58,12.19-25.15,19.08-37.28,6.75-11.9,14.48-23.25,21.79-34.84.22-.35.56-.61.75-1,5.1-9.33,10.16-18.68,15.28-28,6.15-11.17,12.05-22.49,18.63-33.4,3.95-6.54,4.63-13.21,3.74-20.46-2.46-20.11-4.7-40.25-7.22-60.35-2.09-16.65-4.52-33.24-6.61-49.89a28.18,28.18,0,0,1,.37-9c1.1-5.35,4-9.49,10-9.93,4.5-.34,9.83,4.38,10.75,10,1.92,11.81,3.4,23.69,4.94,35.56,1.88,14.48,3.43,29,5.62,43.46.42,2.74,3.16,5.12,4.83,7.67,2.17-1.57,4.87-2.75,6.39-4.81a91.46,91.46,0,0,0,7.12-12c7.82-14.86,15.47-29.8,23.28-44.66,4.7-8.94,9.63-17.75,14.38-26.66,4.18-7.83,12.45-10.48,18.8-5.95,4.4,3.15,5.6,7.39,2.22,11.54C576,274.75,567.52,302,554.45,326.89c-8,15.23-16.48,30.23-24,45.7-2.11,4.37-2.49,10.1-2.05,15.07.81,9.25,2.68,18.42,4.35,27.58,1.63,9,3.45,17.91,5.38,26.82,3.07,14.18,6.05,28.4,9.53,42.48,3.64,14.73,7.75,29.35,11.84,43.95,1.28,4.55,1.07,8.65-2.76,11.59s-8.11,1.73-10.9-1.62c-4.86-5.84-11.09-11.59-13.21-18.47-5.91-19.15-10.14-38.83-14.76-58.37-2.23-9.44-3.85-19-5.76-28.56a7.33,7.33,0,0,0-.86-2.9c-1.74-2.3-3.49-6-5.6-6.23s-5.28,2.52-6.8,4.77c-3.5,5.2-6.24,10.91-9.37,16.36-8.18,14.25-16.28,28.55-24.66,42.67-10.54,17.75-21.31,35.36-32.05,53-1.15,1.89-2.4,4.06-4.19,5.13-2.72,1.62-6.54,4-8.8,3.11C417.05,547.92,415.43,543.89,413.27,541.07Z"/><path class="cls-1" d="M688.51,280.66c0,12.37,1.46,24.95-.31,37.06-3.64,25-7.17,50.16-19,73.09-4.25,8.23-7.77,16.84-12.2,24.95-7.32,13.4-25.21,19.95-39.08,13.75-8.78-3.92-13.57-11.85-15.66-21.27-.87-3.95-1.92-7.87-2.8-11.82-.43-2-1.14-4-.94-5.95,1.68-16.4,3.57-32.78,5.34-49.17,1-9.44,1.18-19.05,3.09-28.3,4-19.18,8.87-38.17,13.27-57.26A27.17,27.17,0,0,1,649,234.89a53.29,53.29,0,0,0,9.67-.46c15.59-1.42,30.5,11.62,31,27.36.21,6.29,0,12.58,0,18.88Zm-19.68,1.71h.31q0-7,0-14a13.79,13.79,0,0,0-.12-1.82c-1.09-8-9.2-13.15-14.81-9-3.29,2.43-6.53,5.9-8,9.61-5.62,14.07-11.55,28.13-12.16,43.65-.09,2.16-1.21,4.27-1.67,6.44-.9,4.33-1.86,8.65-2.46,13-.85,6.2-1.43,12.43-2.07,18.66-1.28,12.51-2.64,25-3.67,37.53-.27,3.17-.26,6.91,1.18,9.54a16.75,16.75,0,0,0,7.77,7.29c3.72,1.45,6.89-1.11,8.54-5,6.47-15.26,13.92-30.19,19.18-45.85,4.08-12.14,6.25-25.09,7.75-37.86C669.81,304,668.83,293.11,668.83,282.37Z"/><path class="cls-1" d="M314.13,491.26c.94-16.56-.18-33.58,3.4-49.55s2.57-32.62,9.42-48.1c4.52-10.21,6.57-21.64,8.67-32.72.72-3.85-1.51-8.36-2.83-12.43-.52-1.6-2.14-2.95-3.46-4.18-11.2-10.41-7-17.37,3.79-23.77,3-1.76,6.14-3.14,9.06-4.95,7.3-4.5,12.05-10.64,12.62-19.62a17.88,17.88,0,0,1,2.37-6.82c2.69-5.1,7.09-7,12.75-6,9.31,1.57,17.23,20.34,11.83,28.09-.58.83-1.19,1.64-1.78,2.47-8.28,11.82-8.27,12.39.14,23.88,7.76,10.6,12.29,22.3,12,35.62a6.69,6.69,0,0,0,.12,2.42c5.89,14.87.48,29.45-.57,44.25-1.24,17.49-5.83,33.91-11.55,50.18-4.78,13.62-10.11,27.17-19.68,38.13-4.77,5.46-11,10.69-17.56,13.32-13.75,5.48-27.47-4.4-28.46-19.25-.25-3.64,0-7.31,0-11Zm67.21-92.71c0-3.65.34-7.34-.07-10.95-1-9.21-.72-19.07-7.33-26.48-2.32-2.58-6.74-4.21-10.34-4.49-4.35-.34-6.54,3.39-7.4,7.53-.7,3.37-1.51,6.72-2.18,10.1q-6.27,31.22-12.48,62.45c-.9,4.57-1.84,9.15-2.34,13.77-1.22,11.27-2.59,22.56-3,33.87-.11,2.86,2.58,7.37,5.08,8.36s7.53-.28,9.6-2.39c3.72-3.78,6.28-8.79,8.94-13.51C373.53,452.53,378.93,426,381.34,398.55Z"/><path class="cls-1" d="M1479.88,392.91c5.84.95,10.32,2.54,12.95,7.8,2.53,5.06.08,8.9-2.7,12.82-5,7.07-9.72,14.39-15,21.27-6.69,8.73-18.86,9.08-26.58,1.17-3.46-3.54-4.15-7.88-1.51-11.67,6.2-8.92,12.49-17.89,19.81-25.88C1469.76,395.26,1475.46,394.67,1479.88,392.91Z"/></svg>